<?xml version="1.0" encoding="UTF-8" standalone="no"?>
<svg
   id="Réteg_2"
   viewBox="0 0 313.82997 313.81"
   version="1.1"
   sodipodi:docname="elte-logo.svg"
   xml:space="preserve"
   width="313.82999"
   height="313.81"
   inkscape:version="1.3.2 (091e20ef0f, 2023-11-25)"
   xmlns:inkscape="http://www.inkscape.org/namespaces/inkscape"
   xmlns:sodipodi="http://sodipodi.sourceforge.net/DTD/sodipodi-0.dtd"
   xmlns="http://www.w3.org/2000/svg"
   xmlns:svg="http://www.w3.org/2000/svg"><sodipodi:namedview
     id="namedview46"
     pagecolor="#ffffff"
     bordercolor="#000000"
     borderopacity="0.25"
     inkscape:showpageshadow="2"
     inkscape:pageopacity="0.0"
     inkscape:pagecheckerboard="0"
     inkscape:deskcolor="#d1d1d1"
     inkscape:zoom="0.6022229"
     inkscape:cx="689.11362"
     inkscape:cy="88.007281"
     inkscape:window-width="1920"
     inkscape:window-height="1008"
     inkscape:window-x="0"
     inkscape:window-y="0"
     inkscape:window-maximized="1"
     inkscape:current-layer="Réteg_2"><inkscape:page
       x="0"
       y="0"
       width="313.82996"
       height="313.81"
       id="page46"
       margin="0"
       bleed="0"
       inkscape:export-filename="elte-logo.pdf"
       inkscape:export-xdpi="96"
       inkscape:export-ydpi="96" /><inkscape:page
       x="1658.79"
       y="-1.1900001"
       width="1277"
       height="269.14999"
       id="page47"
       margin="0"
       bleed="0" /></sodipodi:namedview><defs
     id="defs1"><style
       id="style1">.cls-1{fill:#fff;}</style></defs><g
     id="g148"
     transform="translate(0,-1.19)"><path
       class="cls-1"
       d="m 276.36,158.67 c 0,-3.76 -0.18,-7.55 -0.52,-11.27 -0.04,-0.38 -0.37,-0.66 -0.75,-0.62 l -1.04,0.1 c -0.37,0.04 -0.65,0.37 -0.61,0.74 0.34,3.65 0.51,7.36 0.51,11.04 0,64.69 -52.63,117.32 -117.32,117.32 -64.69,0 -117.32,-52.63 -117.32,-117.32 0,-30.44 11.61,-59.29 32.68,-81.25 20.86,-21.72 48.82,-34.47 78.81,-35.94 0.38,-0.02 0.67,-0.33 0.65,-0.71 l -0.04,-1.04 c -0.02,-0.38 -0.34,-0.68 -0.72,-0.66 -30.6,1.5 -59.14,14.5 -80.43,36.67 -21.51,22.4 -33.36,51.85 -33.36,82.91 0,66.02 53.71,119.73 119.73,119.73 66.02,0 119.73,-53.71 119.73,-119.73 z"
       id="path16"
       style="fill:#000000" /><path
       class="cls-1"
       d="M 156.91,1.19 C 115,1.19 75.6,17.51 45.96,47.15 16.32,76.78 0,116.18 0,158.09 c 0,32.28 9.72,63.26 28.1,89.63 0.22,0.31 0.65,0.39 0.97,0.17 l 0.84,-0.59 c 0.31,-0.22 0.38,-0.64 0.17,-0.96 C 11.79,220.12 2.22,189.26 2.41,157.12 2.66,115.87 19.52,76.29 49.04,47.48 78.09,19.14 116.36,3.57 157.02,3.6 c 40.96,0.03 80.17,16.29 109.13,45.25 28.96,28.96 45.39,68.31 45.25,109.78 -0.14,40.84 -16.37,79.83 -45.25,108.71 -29.18,29.18 -67.98,45.25 -109.24,45.25 -4.57,0 -9.18,-0.2 -13.71,-0.6 -0.38,-0.03 -0.71,0.24 -0.74,0.62 l -0.09,1.03 c -0.04,0.38 0.25,0.72 0.63,0.75 4.6,0.4 9.28,0.61 13.92,0.61 41.91,0 81.31,-16.32 110.95,-45.96 C 297.51,239.4 313.83,200 313.83,158.09 313.83,116.18 297.51,76.78 267.87,47.14 238.22,17.51 198.82,1.19 156.91,1.19 Z"
       id="path17"
       style="fill:#000000" /><path
       class="cls-1"
       d="m 154.99,60.7 c -0.16,0.05 -0.3,0.09 -0.44,0.13 -0.21,0.06 -0.4,0.11 -0.58,0.19 -1.38,0.46 -2.58,1.38 -3.36,2.56 -0.15,0.15 -0.23,0.31 -0.3,0.44 -0.15,0.31 -0.46,0.52 -0.8,0.52 -0.19,0.03 -0.37,0.06 -0.55,0.1 -0.18,0.03 -0.35,0.06 -0.54,0.1 -1.43,0.23 -2.93,0.58 -4.71,1.1 -6.85,1.92 -13.2,5.53 -18.37,10.44 -3.66,3.46 -6.67,7.54 -8.96,12.12 -0.07,0.13 -0.13,0.28 -0.2,0.43 -0.06,0.14 -0.12,0.28 -0.17,0.38 -0.17,0.26 -0.13,0.57 0.08,0.78 0.17,0.2 0.31,0.38 0.46,0.56 l 0.44,0.53 c 0.59,0.7 1.35,1.63 1.97,2.67 0.57,0.86 1.13,1.88 1.72,3.11 1.53,3.2 2.68,6.14 3.51,9.01 0.4,1.29 0.75,2.63 1.08,3.94 0.15,0.59 0.3,1.17 0.46,1.76 0.19,0.77 0.39,1.52 0.58,2.28 0.19,0.75 0.39,1.51 0.58,2.29 0.07,0.21 0.19,0.4 0.56,0.41 l 3.92,-0.45 c 0.82,-0.13 1.58,-0.19 2.42,-0.26 l 1.98,-0.19 c 0.83,-0.06 1.73,-0.13 2.63,-0.19 l 3.01,-0.19 c 1.28,-0.06 2.57,-0.13 3.72,-0.19 h 0.17 c 1.09,-0.07 2.12,-0.13 3.22,-0.13 3.28,-0.09 6.68,-0.15 9.96,-0.1 1.01,0.02 2.02,0.03 3.05,0.03 1.36,0 2.75,0.06 4.1,0.11 0.69,0.03 1.37,0.06 2.06,0.08 0.28,0 0.55,0.02 0.82,0.03 0.28,0.02 0.54,0.03 0.83,0.03 l 3.2,0.19 3.39,0.26 c 0.58,0.06 1.15,0.13 1.8,0.19 l 3.78,0.38 3.49,0.45 h 0.19 c 0.16,0 0.27,-0.11 0.35,-0.19 0.11,-0.12 0.13,-0.24 0.13,-0.32 0.16,-0.6 0.32,-1.18 0.47,-1.77 0.16,-0.59 0.32,-1.19 0.48,-1.8 l 0.06,-0.26 c 0.11,-0.44 0.22,-0.9 0.39,-1.35 0.03,-0.15 0.08,-0.29 0.12,-0.42 0.05,-0.15 0.1,-0.31 0.13,-0.46 0.63,-2.33 1.28,-4.73 2.11,-7.04 0.8,-2.32 1.69,-4.47 2.74,-6.58 1.19,-2.31 2.52,-4.31 4.06,-6.1 l 0.11,-0.11 c 0.41,-0.33 0.42,-0.87 0.21,-1.26 l -0.02,-0.1 c -5.96,-12.36 -17.6,-21.27 -31.14,-23.85 -0.7,-0.13 -1.46,-0.25 -2.23,-0.38 h -0.06 c -0.25,0 -0.47,-0.16 -0.56,-0.38 l -0.04,-0.08 -0.03,-0.03 c 0,0 -0.04,-0.08 -0.08,-0.13 -0.85,-1.48 -2.28,-2.56 -4.02,-3.03 -0.16,-0.05 -0.33,-0.11 -0.53,-0.16 0,-0.03 -0.02,-0.06 -0.03,-0.09 -0.02,-0.05 -0.04,-0.11 -0.06,-0.13 -0.06,-0.82 -0.06,-1.65 -0.01,-2.41 l 0.05,-0.15 v 0 l 0.07,-0.07 c 0,0 0.12,-0.01 0.18,-0.01 h 1.03 c 0.14,0 0.28,-0.02 0.41,-0.03 0.12,-0.01 0.24,-0.03 0.36,-0.03 0.25,0 0.42,-0.22 0.41,-0.37 l 0.07,-0.33 c 0.06,-0.45 0,-0.85 -0.05,-1.26 v -0.05 c 0,-0.22 -0.19,-0.38 -0.37,-0.41 -0.16,-0.07 -0.32,-0.07 -0.45,-0.07 h -1.14 c -0.19,0.05 -0.38,0.01 -0.54,-0.04 l -0.07,-0.07 c 0,0 -0.01,-0.12 -0.01,-0.18 v -2.44 l -0.03,-0.13 -0.07,-0.07 c -0.06,-0.08 -0.18,-0.22 -0.39,-0.22 h -1.6 c -0.23,0 -0.55,0.05 -0.55,0.48 v 2.36 c 0,0 0,0.04 -0.01,0.06 -0.01,0.05 -0.03,0.11 -0.04,0.18 l -0.05,0.05 c 0,0 -0.12,0.01 -0.18,0.01 h -1.03 c -0.27,0 -0.6,0 -0.83,0.06 -0.19,0 -0.42,0.23 -0.41,0.36 -0.14,0.55 -0.14,1.16 0.02,1.76 0.04,0.09 0.16,0.32 0.46,0.32 h 1.99 c 0.06,0 0.09,0.03 0.09,0.03 v 2.69 c 0,0 -0.05,0.08 -0.1,0.11 z m -1.19,22.06 c 0.54,-0.48 1.19,-0.78 1.94,-0.91 0.23,-0.04 0.47,-0.06 0.73,-0.06 0.44,0 0.9,0.06 1.35,0.18 0.59,0.18 1.14,0.47 1.58,0.85 1.02,0.89 1.74,2.13 1.98,3.4 0.13,0.63 0.19,1.27 0.19,1.94 v 10.83 c 0,0 -0.03,0.04 -0.09,0.04 h -9.87 c 0,0 -0.04,-0.03 -0.04,-0.09 V 87.59 c 0,-0.71 0.08,-1.29 0.25,-1.8 0.29,-1.1 0.99,-2.17 1.98,-3.03 z m -0.55,-8.81 c 0.41,0.18 0.79,0.31 1.3,0.46 1.41,0.38 2.98,0.29 4.43,-0.26 l 0.54,-0.18 c -0.13,0.66 -0.2,1.26 -0.26,1.87 -0.06,0.89 -0.19,1.8 -0.32,2.71 0,0.36 -0.06,0.71 -0.12,1.12 l -1.79,-0.38 c -0.2,-0.03 -0.42,-0.05 -0.65,-0.05 -0.23,0 -0.47,0.02 -0.72,0.05 l -1.46,0.34 c -0.06,0.03 -0.12,0.04 -0.2,0.04 l -0.05,-0.05 -0.32,-2.69 c -0.06,-0.91 -0.2,-1.82 -0.33,-2.75 -0.02,-0.07 -0.04,-0.15 -0.04,-0.23 z m -2.86,-1.99 c 0,0 0.05,-0.01 0.05,-0.01 0,0 0.03,0.04 0.04,0.11 l 0.05,0.09 c 0,0 0,0.07 0,0.14 0.07,0.44 0.12,0.88 0.17,1.33 0.05,0.4 0.09,0.81 0.15,1.24 0.06,0.45 0.13,0.91 0.19,1.37 0.06,0.47 0.13,0.93 0.19,1.38 l 0.39,3.17 c 0.05,0.18 0,0.36 -0.13,0.49 l -0.04,0.06 c -0.05,0.1 -0.17,0.21 -0.29,0.33 -1.18,1.31 -1.91,2.95 -2.11,4.73 -0.13,0.85 -0.13,1.64 -0.13,2.47 v 9.11 l 0.02,0.99 -1.69,0.1 c 0,0 -0.08,-0.06 -0.1,-0.28 -0.03,-0.24 -0.03,-0.41 -0.03,-0.67 l -0.19,-5.33 c 0,-1.42 -0.07,-2.85 -0.13,-4.25 -0.07,-0.76 -0.14,-1.39 -0.33,-2.09 -0.34,-1.37 -1.1,-2.62 -2.11,-3.5 -0.51,-0.51 -1.17,-0.98 -1.85,-1.32 -1.17,-0.65 -2.56,-0.93 -3.91,-0.8 -1.85,0.13 -3.53,1 -4.71,2.45 -0.95,1.09 -1.59,2.34 -1.85,3.64 -0.15,0.88 -0.19,1.66 -0.13,2.36 0.06,0.84 0.2,1.7 0.39,2.53 0.51,2.76 1.1,5.57 1.67,8.28 v 0.05 c 0,0 0.05,0.05 0.05,0.05 0,0.02 0.01,0.07 0.02,0.07 v 0 c 0,0 -0.03,0.03 -0.04,0.05 -0.09,0.05 -0.19,0.09 -0.29,0.09 l -1.18,0.19 h -0.14 c -0.12,-0.19 -0.17,-0.4 -0.23,-0.68 -0.77,-2.37 -1.76,-4.85 -3.03,-7.6 l -0.58,-1.17 c -0.65,-1.1 -1.64,-2.04 -2.79,-2.65 l -0.22,-0.11 c 0,0 -0.14,-0.11 -0.15,-0.09 0,0 0,-0.03 0.08,-0.12 2.43,-3.83 5.65,-7.23 9.3,-9.81 3.72,-2.63 7.81,-4.54 12.17,-5.67 1,-0.23 2.18,-0.5 3.42,-0.71 z m -5.56,26.72 v 0.58 c 0,0.07 -0.03,0.09 -0.11,0.1 l -7.94,0.64 c 0,0 -0.02,-0.01 -0.04,-0.07 -0.02,-0.04 -0.03,-0.1 -0.04,-0.17 -0.02,-0.08 -0.03,-0.17 -0.07,-0.25 l -0.26,-1.19 c -0.5,-2.32 -0.97,-4.51 -1.41,-6.79 -0.06,-0.35 -0.13,-0.69 -0.19,-1.03 -0.06,-0.34 -0.13,-0.67 -0.19,-1.02 -0.31,-1.72 0.29,-3.49 1.62,-4.75 0.29,-0.35 0.65,-0.59 1.1,-0.85 0.89,-0.53 2.05,-0.67 3.1,-0.36 1.89,0.49 3.31,1.94 3.82,3.88 0.12,0.41 0.18,0.9 0.18,1.36 0.06,1.67 0.13,3.4 0.19,5.83 0,0.91 0.13,2.54 0.26,4.1 z m 4.98,-29.15 z m -29.76,18.16 c 5.89,-10.18 15.8,-17.44 27.18,-19.9 0.51,-0.13 1.09,-0.26 1.67,-0.38 0.12,-0.03 0.24,-0.04 0.36,-0.06 0.11,-0.01 0.22,-0.03 0.32,-0.05 v 0.15 c 0,0.62 0.07,1.27 0.19,1.8 v 0.3 c -0.09,0.02 -0.18,0.03 -0.26,0.05 -0.13,0.02 -0.24,0.04 -0.33,0.07 -3.41,0.59 -6.69,1.63 -9.74,3.1 -4.83,2.29 -9.04,5.43 -12.52,9.36 -1.14,1.32 -2.24,2.77 -3.37,4.47 -0.13,0.27 -0.32,0.57 -0.49,0.8 l -0.03,0.06 c -0.03,0.08 -0.14,0.1 -0.22,0.1 l -0.77,-0.06 h -0.02 c -0.64,0 -1.32,0.04 -2.02,0.29 0,-0.03 0.02,-0.05 0.03,-0.08 z m 6.18,14.31 c 0,0 -0.1,0.03 -0.17,0.04 -0.07,0.01 -0.14,0.03 -0.21,0.05 0,0 -0.02,-0.01 -0.04,-0.03 -0.01,-0.03 -0.02,-0.07 -0.03,-0.12 -0.02,-0.07 -0.04,-0.15 -0.07,-0.21 -0.63,-1.88 -1.45,-3.85 -2.58,-6.18 -0.79,-1.65 -1.81,-3.34 -3.02,-5.01 l -0.16,-0.32 h 0.02 c 1.2,-0.34 2.29,-0.36 3.34,-0.07 0.38,0.11 0.8,0.28 1.25,0.5 0.91,0.43 1.65,1.16 2.07,2.07 0.69,1.51 1.4,3.06 1.98,4.66 0.19,0.55 0.39,1.08 0.58,1.6 0.19,0.53 0.38,1.06 0.58,1.6 0.05,0.14 0.09,0.27 0.11,0.39 -0.12,0.07 -0.21,0.11 -0.33,0.16 l -3.32,0.85 z m 60.35,2.41 -0.18,0.54 c -0.26,0.76 -0.5,1.48 -0.71,2.26 -0.13,0.48 -0.27,0.94 -0.41,1.4 -0.14,0.47 -0.29,0.94 -0.42,1.41 l -1.15,3.66 -0.02,0.04 c -0.07,0.19 -0.34,0.09 -0.56,0.06 l -5.67,-0.64 c -0.45,-0.03 -0.91,-0.08 -1.37,-0.13 -0.47,-0.05 -0.93,-0.1 -1.39,-0.13 l -6.4,-0.45 -0.6,-0.07 c -0.73,-0.02 -1.45,-0.05 -2.18,-0.08 -1.43,-0.06 -2.91,-0.11 -4.37,-0.11 -0.93,0 -1.86,-0.02 -2.79,-0.03 -0.93,-0.02 -1.86,-0.03 -2.79,-0.03 v 0 c -1.15,0.03 -2.29,0.05 -3.43,0.06 -1.14,0.02 -2.28,0.03 -3.43,0.06 -1.16,0 -2.34,0.06 -3.47,0.13 l -3.72,0.19 c -1.09,0.06 -2.12,0.13 -3.15,0.19 l -4.62,0.39 -2.37,0.26 -2.16,0.19 c -0.13,0 -0.15,-0.03 -0.17,-0.1 -0.06,-0.19 -0.12,-0.44 -0.19,-0.69 -0.27,-1.06 -0.56,-2.13 -0.84,-3.21 -0.39,-1.47 -0.78,-2.94 -1.17,-4.47 -0.12,-0.23 -0.18,-0.47 -0.23,-0.67 0,-0.02 0,-0.03 0.03,-0.06 l 0.45,-0.17 c 1.32,-0.4 2.59,-0.71 3.89,-0.96 1,-0.21 2.04,-0.36 3.04,-0.51 0.55,-0.08 1.09,-0.16 1.63,-0.25 0.45,-0.06 0.91,-0.11 1.37,-0.16 0.47,-0.05 0.94,-0.1 1.38,-0.16 1.14,-0.13 2.35,-0.25 3.59,-0.38 0.38,-0.03 0.73,-0.05 1.08,-0.06 0.36,-0.02 0.71,-0.03 1.1,-0.06 0.38,-0.03 0.78,-0.05 1.18,-0.06 0.4,-0.02 0.81,-0.03 1.19,-0.06 2.8,-0.13 5.67,-0.19 8.52,-0.19 1.74,0 3.49,0.06 5.18,0.11 0.88,0.03 1.75,0.06 2.64,0.08 0.9,0 1.84,0.06 2.76,0.12 0.45,0.03 0.9,0.06 1.33,0.08 l 7.31,0.51 c 1.08,0.06 2.12,0.19 3.13,0.32 1.45,0.19 2.94,0.38 4.41,0.64 l 0.13,0.02 c 1.3,0.25 2.61,0.5 3.85,0.75 0.15,0.03 0.29,0.08 0.42,0.12 0.13,0.04 0.26,0.09 0.41,0.12 -0.04,0.08 -0.05,0.15 -0.05,0.2 z m -10.26,-4.55 -0.06,0.06 h -0.42 c -0.38,0 -0.69,0 -1.07,-0.06 l -6.3,-0.54 h -0.16 v -0.26 c 0,-1.02 0,-1.98 0.06,-2.93 0.03,-0.36 0.05,-0.71 0.06,-1.07 0.02,-0.35 0.03,-0.7 0.06,-1.05 v 0 c 0.06,-1.62 0.06,-3.22 0.06,-4.77 0,-0.45 0.05,-0.84 0.11,-1.29 l 0.02,-0.16 c 0.06,-0.5 0.22,-0.99 0.48,-1.45 0.51,-0.89 1.26,-1.69 2.1,-2.23 1.82,-1.15 4.29,-0.84 5.74,0.72 0.73,0.86 1.19,1.8 1.36,2.78 0.12,0.74 0.12,1.43 0,2.09 -0.13,0.58 -0.24,1.16 -0.35,1.74 -0.11,0.58 -0.22,1.15 -0.35,1.73 -0.16,0.86 -0.34,1.73 -0.51,2.59 -0.18,0.87 -0.35,1.73 -0.51,2.59 l -0.33,1.4 c 0,0 0,0.09 0,0.1 z m 16.74,-9.48 c -0.04,0.07 -0.08,0.14 -0.15,0.21 -0.96,1.32 -1.87,2.84 -2.71,4.52 -0.97,1.89 -1.88,3.99 -2.71,6.27 -0.03,0.12 -0.07,0.22 -0.12,0.32 -0.04,0.1 -0.09,0.2 -0.12,0.31 -0.02,0.02 -0.05,0.03 -0.06,0.03 h -0.1 l -3.69,-0.96 h -0.06 c 0,0 -0.09,0 -0.1,0 l -0.05,-0.05 c 0,0 0.04,-0.1 0.05,-0.14 0.01,-0.04 0.02,-0.08 0.05,-0.15 0.74,-2.22 1.7,-4.65 2.95,-7.43 0.08,-0.21 0.2,-0.42 0.3,-0.61 0.05,-0.09 0.1,-0.18 0.14,-0.26 0.44,-0.81 1.05,-1.41 1.83,-1.77 1.08,-0.57 2.2,-0.8 3.33,-0.68 h 0.09 c 0.38,0.07 0.8,0.13 1.18,0.27 0,0.01 0.01,0.02 0.02,0.03 -0.02,0.03 -0.04,0.07 -0.06,0.1 z M 163.39,69.35 c 0.02,-0.07 0.04,-0.16 0.04,-0.2 0.06,-0.31 0.13,-0.71 0.13,-1.13 0,-0.12 0.02,-0.26 0.03,-0.39 0.02,-0.15 0.03,-0.31 0.03,-0.45 0,0 0.04,-0.02 0.08,-0.03 0.64,0.13 1.34,0.25 2.09,0.38 4.73,1.01 9.43,2.93 13.59,5.55 5.56,3.51 10.24,8.35 13.5,13.93 0.05,0.15 0.16,0.32 0.24,0.45 0.04,0.06 0.07,0.11 0.09,0.15 0.01,0.02 0.02,0.04 0.03,0.06 -0.02,0 -0.03,0 -0.03,0 -0.64,-0.15 -1.31,-0.22 -1.97,-0.22 -0.22,0 -0.43,0 -0.64,0.02 h -0.32 c -0.09,0 -0.21,-0.02 -0.23,-0.1 l -0.02,-0.05 -0.07,-0.06 c -5.37,-8.64 -14.12,-14.92 -23.99,-17.22 -0.39,-0.1 -0.79,-0.18 -1.2,-0.26 -0.4,-0.08 -0.8,-0.16 -1.16,-0.25 l -0.23,-0.04 c 0,0 0.01,-0.09 0.02,-0.14 z m -2.24,11.36 c 0.02,-0.12 0.03,-0.25 0.03,-0.36 0.13,-1.09 0.26,-2.12 0.38,-3.14 l 0.39,-2.7 c 0.03,-0.26 0.06,-0.53 0.1,-0.8 0.03,-0.27 0.06,-0.54 0.09,-0.77 0.03,-0.14 0.05,-0.29 0.07,-0.45 0.01,-0.13 0.03,-0.27 0.1,-0.41 0.24,0 0.57,0.04 0.99,0.12 1.19,0.2 2.32,0.46 3.37,0.76 5.35,1.53 10.18,4.19 14.34,7.9 2.21,2.07 4,4.11 5.49,6.26 0.18,0.24 0.37,0.5 0.5,0.75 l 0.15,0.24 c 0.07,0.12 0.15,0.23 0.17,0.24 -0.03,0.04 -0.17,0.12 -0.31,0.2 l -0.17,0.1 c -1.29,0.75 -2.33,1.88 -2.91,3.17 -0.38,0.75 -0.7,1.47 -1.03,2.25 -0.84,1.88 -1.56,3.83 -2.26,5.75 -0.06,0.22 -0.17,0.52 -0.3,0.79 h -0.02 c 0,0 -1.59,-0.24 -1.59,-0.24 -0.01,-0.01 -0.01,-0.01 -0.01,0 0.03,-0.16 0.07,-0.34 0.11,-0.52 0.06,-0.25 0.11,-0.51 0.15,-0.76 0.5,-2.33 1.03,-4.74 1.48,-7.12 l 0.38,-2.12 c 0.34,-1.96 -0.09,-3.93 -1.19,-5.55 -0.47,-0.7 -0.92,-1.24 -1.38,-1.64 -0.98,-0.91 -2.29,-1.52 -3.72,-1.73 -1.44,-0.2 -2.95,0.11 -4.24,0.86 -1.91,1.02 -3.35,2.84 -3.96,5.01 -0.14,0.49 -0.2,0.9 -0.2,1.33 -0.03,0.58 -0.05,1.16 -0.06,1.74 -0.02,0.58 -0.03,1.15 -0.06,1.73 l -0.19,5.59 c 0,0.28 -0.02,0.55 -0.03,0.82 -0.02,0.28 -0.01,0.45 -0.01,0.75 0,0.04 -0.01,0.37 -0.05,0.45 h -0.18 l -1.48,-0.06 c 0,0 -0.04,-0.03 -0.04,-0.1 v -6.09 c 0,-1.71 0,-3.48 -0.19,-5.26 0,-0.91 -0.13,-1.77 -0.39,-2.63 -0.43,-1.43 -1.12,-2.63 -2.04,-3.56 l -0.13,-0.13 c -0.08,-0.08 -0.13,-0.21 -0.13,-0.35 0,-0.12 0.02,-0.22 0.03,-0.32 z M 156.4,63.17 c 0.68,0 1.37,0.13 1.95,0.36 0.04,0.02 0.09,0.04 0.14,0.07 0.11,0.05 0.23,0.1 0.35,0.18 2.12,1.31 2.8,4.04 1.53,6.1 -0.5,0.82 -1.18,1.41 -2.02,1.77 -0.63,0.29 -1.3,0.43 -2.02,0.43 -0.37,0 -0.67,0 -1.03,-0.12 -1.02,-0.3 -1.89,-0.9 -2.57,-1.76 -0.36,-0.58 -0.57,-1.05 -0.67,-1.52 -0.06,-0.39 -0.12,-0.75 -0.12,-1.12 0,-2.42 2,-4.39 4.46,-4.39 z"
       id="path18"
       style="fill:#000000" /><path
       class="cls-1"
       d="m 146.31,243.66 c -0.13,-0.03 -0.28,-0.06 -0.42,-0.1 -0.14,-0.03 -0.28,-0.06 -0.41,-0.1 l -1.4,-0.33 h -0.26 c -0.19,0 -0.35,0.17 -0.35,0.35 v 0.06 l 0.03,0.05 c 0.21,0.35 0.43,0.63 0.77,0.84 0.5,0.36 0.96,0.61 1.45,0.79 1.03,0.44 2.13,0.67 3.25,0.67 0.37,0 0.74,-0.03 1.12,-0.08 1.03,-0.19 1.99,-0.39 2.95,-0.58 0.22,-0.04 0.44,-0.09 0.67,-0.13 0.48,-0.1 0.98,-0.21 1.5,-0.25 1.35,-0.14 2.5,-0.1 3.52,0.12 0.58,0.13 1.14,0.24 1.7,0.35 0.56,0.11 1.12,0.22 1.7,0.35 0.68,0.14 1.27,0.2 1.9,0.2 0.79,0 1.52,-0.13 2.23,-0.26 0.81,-0.19 1.55,-0.5 2.31,-0.99 0.39,-0.24 0.64,-0.45 0.81,-0.68 0.07,-0.07 0.1,-0.15 0.13,-0.26 l 0.07,-0.07 v -0.51 h -0.39 c -0.39,0.06 -0.88,0.17 -1.42,0.32 -0.63,0.12 -1.27,0.25 -1.91,0.32 -0.99,0.12 -2,0.06 -3,-0.19 l -5.14,-1.29 c -0.67,-0.13 -1.41,-0.13 -2.12,0 -0.53,0.07 -1.05,0.2 -1.57,0.33 -0.64,0.16 -1.26,0.32 -1.88,0.48 -0.63,0.16 -1.26,0.32 -1.9,0.48 -1.26,0.3 -2.59,0.32 -3.93,0.06 z"
       id="path19"
       style="fill:#000000" /><path
       class="cls-1"
       d="m 121.92,235.27 c 0.33,0.33 0.67,0.67 1.07,0.87 0.87,0.54 1.85,0.92 2.84,1.12 0.9,0.15 1.59,0.19 2.3,0.13 0.57,-0.04 1.14,-0.15 1.69,-0.25 0.28,-0.05 0.55,-0.1 0.85,-0.14 1.19,-0.25 2.43,-0.51 3.64,-0.7 0.84,-0.14 1.58,-0.18 2.25,-0.13 0.7,0.06 1.41,0.19 2.09,0.32 0.64,0.14 1.28,0.27 1.94,0.39 0.52,0.1 1.05,0.2 1.58,0.31 0.6,0.18 1.25,0.27 1.99,0.27 0.6,0 1.2,-0.05 1.83,-0.11 l 0.19,-0.02 c 1.12,-0.19 2.18,-0.62 3.24,-1.32 0.27,-0.2 0.54,-0.4 0.73,-0.66 0.07,-0.07 0.1,-0.15 0.13,-0.26 l 0.07,-0.07 v -0.32 l -0.07,-0.07 c -0.09,-0.09 -0.15,-0.13 -0.29,-0.13 -0.21,0 -0.42,0 -0.64,0.07 -0.85,0.26 -1.68,0.45 -2.54,0.57 -0.99,0.19 -2,0.19 -2.99,0 l -0.55,-0.11 c -1.05,-0.22 -2.13,-0.45 -3.16,-0.72 -0.77,-0.22 -1.79,-0.5 -2.82,-0.71 -0.7,-0.19 -1.48,-0.21 -2.28,-0.07 -0.7,0.13 -1.42,0.26 -2.13,0.45 -1.27,0.32 -2.6,0.63 -3.98,0.96 -1.43,0.37 -3.01,0.37 -4.43,0 -0.69,-0.21 -1.31,-0.34 -1.85,-0.45 -0.23,-0.08 -0.44,-0.08 -0.65,-0.08 -0.07,0 -0.29,0.03 -0.29,0.35 l 0.02,0.1 c 0.07,0.15 0.14,0.29 0.23,0.38 z"
       id="path20"
       style="fill:#000000" /><path
       class="cls-1"
       d="m 163.97,235.62 c 0,0 0.05,0.1 0.09,0.14 0.25,0.31 0.58,0.6 0.96,0.82 0.45,0.26 0.91,0.52 1.44,0.72 0.91,0.38 1.9,0.58 2.97,0.58 0.31,0 0.62,-0.02 0.94,-0.05 0.19,-0.03 0.4,-0.06 0.61,-0.1 0.21,-0.03 0.42,-0.06 0.62,-0.1 0.61,-0.13 1.24,-0.27 1.86,-0.42 0.62,-0.14 1.25,-0.29 1.86,-0.42 1.42,-0.35 2.96,-0.4 4.57,-0.13 0.69,0.17 1.4,0.29 2.07,0.4 0.34,0.06 0.68,0.11 1.02,0.18 l 0.17,0.03 c 0.71,0.12 1.38,0.23 2.12,0.23 0.74,0 1.38,-0.08 2.1,-0.26 0.88,-0.18 1.86,-0.58 2.84,-1.19 0.37,-0.25 0.7,-0.56 1.07,-1.01 l 0.05,-0.06 v -0.02 c 0,0 0.06,-0.1 0.06,-0.19 l -0.02,-0.1 c -0.04,-0.08 -0.15,-0.25 -0.33,-0.25 -0.21,0 -0.42,0 -0.64,0.07 -1.03,0.32 -2,0.51 -2.97,0.7 -0.56,0.06 -1.19,0.06 -1.8,0 -0.88,-0.12 -1.79,-0.26 -2.61,-0.45 l -3.59,-0.77 c -1.36,-0.28 -2.65,-0.24 -3.82,0.13 -0.61,0.16 -1.2,0.32 -1.8,0.48 -0.59,0.16 -1.19,0.32 -1.81,0.49 -0.7,0.23 -1.51,0.43 -2.34,0.57 -0.81,0.12 -1.62,0.12 -2.42,0 l -2.17,-0.45 c -0.27,-0.07 -0.54,-0.13 -0.82,-0.13 -0.19,0 -0.35,0.17 -0.35,0.35 l 0.02,0.13 0.07,0.07 z"
       id="path21"
       style="fill:#000000" /><path
       class="cls-1"
       d="m 127.04,174.79 c 1.09,1.54 2.76,2.44 4.62,2.37 1.28,0 2.57,-0.45 3.59,-1.22 1.35,-0.96 2.12,-2.5 2.18,-4.17 0,-0.83 -0.13,-1.67 -0.51,-2.37 -0.38,-0.9 -1.09,-1.67 -1.99,-2.12 -0.9,-0.45 -1.92,-0.58 -2.95,-0.45 -1.15,0.13 -2.24,0.83 -2.89,1.86 -0.1,0.15 -0.24,0.25 -0.34,0.36 -0.04,0.05 -0.13,0.09 -0.19,0.09 0,-0.15 0.02,-0.25 0.02,-0.38 0.06,-0.83 0.19,-1.73 0.38,-2.57 0.45,-1.73 1.28,-3.4 2.44,-4.75 0.51,-0.64 1.22,-1.22 1.92,-1.67 l 0.32,-0.26 0.06,-0.06 c 0.13,-0.13 0.13,-0.32 0,-0.45 -0.06,-0.06 -0.13,-0.06 -0.19,-0.06 -0.06,0 -0.19,0 -0.26,0.06 -1.86,0.83 -3.46,1.99 -4.81,3.53 -2.18,2.57 -3.14,5.9 -2.63,9.24 0.19,1.09 0.58,2.12 1.22,3.01 z m 1.92,-3.46 c 0.13,-0.71 0.38,-1.41 0.83,-1.99 0.19,-0.32 0.45,-0.58 0.71,-0.77 0.9,-0.64 2.12,-0.58 2.95,0.13 0.38,0.32 0.71,0.77 0.9,1.28 0.26,0.64 0.38,1.22 0.38,1.86 v 0.32 c 0.06,0.71 -0.13,1.48 -0.32,1.99 -0.19,0.45 -0.45,0.83 -0.83,1.15 -0.45,0.38 -0.96,0.58 -1.54,0.64 -0.64,0.06 -1.22,-0.19 -1.67,-0.58 -0.26,-0.19 -0.45,-0.45 -0.64,-0.71 -0.45,-0.64 -0.77,-1.41 -0.83,-2.25 0,-0.32 0,-0.71 0.06,-1.09 z"
       id="path22"
       style="fill:#000000" /><path
       class="cls-1"
       d="m 116.14,163.31 c 0.06,0 0.19,-0.06 0.26,-0.06 l 1.6,-0.51 0.39,-0.13 c 0.06,-0.06 0.19,0.06 0.19,0.13 0.06,0.26 0.06,0.45 0.06,0.71 v 11.87 c 0,0.38 -0.19,0.77 -0.45,1.09 -0.03,0.04 -0.06,0.06 -0.06,0.13 0,0.13 0.13,0.19 0.19,0.19 h 3.46 c 0.13,0 0.17,-0.11 0.13,-0.19 -0.04,-0.08 -0.06,-0.13 -0.13,-0.19 -0.26,-0.26 -0.32,-0.58 -0.32,-0.9 v -0.19 c 0,-1.86 -0.06,-3.66 -0.06,-5.52 v -2.31 c 0.06,-1.67 0.06,-3.27 0.06,-4.94 v -3.14 c 0,-0.06 -0.06,-0.19 -0.06,-0.32 0,-0.06 -0.13,-0.13 -0.19,-0.06 -0.19,0.13 -0.32,0.32 -0.51,0.45 -0.51,0.39 -0.96,0.9 -1.48,1.28 -0.64,0.45 -1.28,0.96 -1.92,1.41 -0.38,0.26 -0.71,0.51 -1.09,0.77 -0.06,0.06 -0.13,0.13 -0.19,0.19 0,0.06 0.06,0.26 0.13,0.26 z"
       id="path23"
       style="fill:#000000" /><path
       class="cls-1"
       d="m 187.75,168.37 c 0,0 0.23,0.08 0.38,-0.06 l 0.32,-0.32 c 0.58,-0.58 1.28,-0.96 2.12,-1.15 0.58,-0.13 1.22,-0.13 1.86,0 1.22,0.19 2.18,1.09 2.57,2.25 0.13,0.32 0.19,0.71 0.19,1.09 0.06,0.64 0,1.28 -0.13,1.92 -0.38,1.99 -1.86,3.59 -3.78,4.17 -0.83,0.26 -1.73,0.32 -2.57,0.19 l -0.38,-0.06 c -0.06,0.06 -0.13,0.13 -0.13,0.19 0.06,0.13 0.06,0.26 0.13,0.45 l 0.19,0.19 c 0.06,0 0.19,0.06 0.26,0.06 1.09,0.13 2.12,0.13 3.14,-0.13 2.24,-0.45 4.17,-1.92 5.26,-3.98 0.83,-1.54 1.03,-3.33 0.45,-5 -0.32,-1.03 -1.03,-1.92 -1.99,-2.44 -1.28,-0.77 -2.89,-0.96 -4.36,-0.51 -0.77,0.19 -1.48,0.58 -2.12,1.09 -0.19,0.13 -0.32,0.26 -0.45,0.38 l -0.13,0.13 c -0.06,0.06 -0.27,0.16 -0.26,-0.13 0.06,-0.98 0.19,-2.89 0.26,-3.98 0,-0.13 0.02,-0.27 0.06,-0.39 0.06,-0.13 0.19,-0.26 0.32,-0.26 h 6.8 c 0.11,0 0.25,-0.04 0.26,-0.38 0.13,-0.71 0.26,-1.35 0.45,-1.99 v -0.06 c 0.06,-0.26 -0.06,-0.32 -0.26,-0.32 -0.51,0.13 -1.03,0.13 -1.54,0.13 h -5.64 c -1.03,0 -0.96,0 -1.03,0.96 -0.13,0.83 -0.13,1.6 -0.19,2.44 l -0.26,4.17 c -0.01,0.42 -0.06,0.64 -0.06,0.96 0,0.19 0.06,0.32 0.26,0.38 z"
       id="path24"
       style="fill:#000000" /><path
       class="cls-1"
       d="m 174.73,162.22 c 0.06,0.13 0.19,0.13 0.26,0.06 l 0.71,-0.58 c 0.45,-0.32 0.9,-0.58 1.41,-0.77 0.9,-0.32 1.8,-0.38 2.69,-0.13 0.83,0.19 1.48,0.96 1.54,1.8 0.19,0.96 -0.06,1.92 -0.71,2.63 -0.26,0.32 -0.51,0.58 -0.83,0.77 -0.51,0.39 -1.03,0.64 -1.6,0.9 l -0.77,0.32 c -0.13,0.06 -0.19,0.19 -0.13,0.32 0.06,0.06 0.06,0.19 0.13,0.26 0.06,0.13 0.26,0.19 0.38,0.13 0.26,-0.13 0.51,-0.19 0.77,-0.26 0.58,-0.13 1.09,-0.13 1.67,0 1.03,0.13 1.92,0.83 2.31,1.8 0.13,0.32 0.19,0.71 0.26,1.03 0.06,0.51 0.06,1.09 0,1.6 -0.13,1.35 -0.9,2.57 -2.05,3.27 -0.39,0.26 -0.83,0.45 -1.28,0.58 -1.15,0.32 -2.44,0.38 -3.66,0.19 l -0.77,-0.13 c -0.06,0 -0.06,0.06 -0.06,0.13 v 0.39 c 0,0.13 0.06,0.32 0.26,0.32 0.32,0.06 0.64,0.13 0.96,0.19 1.22,0.13 2.5,0 3.72,-0.32 1.03,-0.32 2.05,-0.77 2.95,-1.35 0.77,-0.58 1.48,-1.22 1.99,-2.05 0.9,-1.35 1.09,-3.08 0.51,-4.62 -0.26,-0.9 -0.9,-1.67 -1.73,-2.12 -0.38,-0.26 -0.9,-0.38 -1.35,-0.51 -0.32,-0.06 -0.71,-0.19 -1.03,-0.26 l -0.06,-0.06 v -0.06 l 0.58,-0.39 c 0.51,-0.32 0.9,-0.77 1.28,-1.22 0.58,-0.77 0.83,-1.73 0.71,-2.69 -0.06,-0.71 -0.45,-1.35 -1.03,-1.73 -0.32,-0.19 -0.64,-0.38 -1.03,-0.51 -1.03,-0.32 -2.18,-0.38 -3.21,-0.06 -1.54,0.38 -2.89,1.35 -3.85,2.63 -0.13,0.19 -0.13,0.32 0.06,0.51 z"
       id="path25"
       style="fill:#000000" /><path
       class="cls-1"
       d="m 109.32,120.35 v 99.91 c 0,14.81 12.08,25.99 20.2,29.83 10.9,5.15 15.4,7.13 22.87,10.4 l 3.43,1.5 c 0.33,0.15 0.71,0.15 1.04,0 l 2.57,-1.12 c 8.97,-3.94 11.7,-5.14 23.63,-10.77 5.89,-2.78 13.85,-9.42 17.79,-18.6 1.5,-3.49 2.41,-7.33 2.41,-11.48 v -99.91 c 0,-0.36 -0.29,-0.65 -0.65,-0.65 h -92.65 c -0.36,0 -0.65,0.28 -0.65,0.9 z m 91.53,67.35 v 9.13 c -0.09,0.08 -0.17,0.17 -0.18,0.23 -0.52,0.32 -2,1.41 -2.52,1.72 l -8.7,5.85 -0.39,0.24 q -0.13,0.08 -0.28,-0.11 c -0.15,-0.19 -0.25,-0.45 -0.34,-0.72 -0.27,-0.73 -0.38,-1.04 -0.78,-1.69 -1.15,-2.08 -2.54,-3.74 -4.61,-4.94 -0.41,-0.24 -0.61,-0.24 0.14,-1.05 l 9.5,-9.21 h 2.36 c 0,0 2.31,0 2.31,0 h 3.04 c 0.25,0 0.45,0.2 0.45,0.45 v 0.09 z m -29.12,35.63 c -0.22,-0.19 -0.45,-0.21 -0.73,-0.17 -0.27,0.02 -0.54,0.12 -0.8,0.21 l -1.97,1.08 -3.51,1.76 c -0.85,0.42 -1.7,0.56 -2.65,0.64 l -0.91,-0.06 c -0.07,0 -0.14,-0.05 -0.14,-0.05 -0.05,-0.22 0.18,-0.29 0.18,-0.29 1.3,-0.73 2.52,-1.53 3.82,-2.26 0.65,-0.4 1.29,-0.8 1.93,-1.27 0.58,-0.4 1.09,-0.85 1.59,-1.24 0.31,-0.3 0.63,-0.6 0.8,-0.96 0.06,-0.14 0.04,-0.28 -0.1,-0.4 -0.23,-0.25 -0.57,-0.29 -0.83,-0.13 -0.32,0.24 -0.65,0.4 -0.97,0.57 l -6.56,4.24 c -0.39,0.24 -0.84,0.49 -1.23,0.73 -0.85,0.42 -2.54,0.74 -3.05,0.41 -0.18,-0.12 0.11,-0.29 0.24,-0.36 0.65,-0.34 1.3,-0.67 1.96,-1 0.9,-0.57 1.41,-1.02 1.91,-1.35 0.69,-0.46 1.29,-1 1.93,-1.54 1.14,-0.99 2.13,-2.11 2.98,-3.28 0.24,-0.29 0.34,-0.52 0.52,-0.81 0.06,-0.14 0.12,-0.41 -0.02,-0.47 -0.22,-0.19 -0.49,-0.16 -0.75,0 -0.32,0.23 -0.64,0.47 -0.96,0.7 l -4.24,3.71 c -0.25,0.23 -0.51,0.39 -0.76,0.62 -0.63,0.54 -1.54,1.06 -2.25,1.39 l -2.84,1.42 c -1.22,0.55 -1.77,0.75 -2.11,0.85 -0.33,0.1 -0.92,0.12 -1.33,0.09 -0.14,0.01 -0.28,-0.04 -0.42,-0.1 0,0 -0.08,-0.13 -0.02,-0.2 0.06,-0.14 0.19,-0.22 0.24,-0.29 0.51,-0.39 1.02,-0.78 1.53,-1.17 1.41,-0.95 2.76,-1.96 4.09,-3.04 2.67,-2.16 5.12,-4.5 7.34,-7.03 0.49,-0.59 0.48,-0.6 0.97,-1.19 0.55,-0.66 1.38,-1.75 1.38,-1.75 0.53,-0.67 -0.11,-1.21 -0.67,-1.17 -0.14,0 -2.48,0.73 -3.67,1.18 -1.45,0.61 -2.53,1.68 -4.23,2.76 -0.47,0.3 -1.7,1.07 -2.22,1.28 -1.75,0.71 -3.02,-0.2 -2.17,-0.92 0,0 2.11,-1.88 2.94,-2.57 1.21,-0.93 4.37,-4.28 7.52,-6.5 0.99,-0.7 1.39,-0.83 2.47,-0.97 5.33,-0.68 9.71,-2.16 12.03,-3.74 0.58,-0.39 1.14,-0.76 1.64,-1.22 0.25,-0.23 0.51,-0.45 0.76,-0.68 0.12,-0.15 0.4,-0.17 0.61,-0.06 0.21,0.05 0.43,0.17 0.57,0.22 1.5,0.75 2.75,1.75 3.77,3.16 0.71,0.96 1.28,2.07 1.66,3.2 0.08,0.13 0.17,0.33 0.18,0.46 q 0.2,0.73 -0.38,1.13 c -2.3,1.72 -4.28,3.88 -5.83,6.34 -0.71,1.16 -1.42,2.39 -2.13,3.55 l -2.97,4.85 -0.77,1.23 c -0.71,1.16 -1.6,2.16 -2.85,2.69 -0.86,0.35 -1.35,0.74 -2.21,1.02 -0.53,0.18 -1.13,0.38 -1.72,0.57 -0.27,0.09 -1.46,0.34 -1.65,0.02 -0.1,-0.18 0.23,-0.29 0.36,-0.36 0.98,-0.5 2.07,-1.25 3.05,-1.69 0.78,-0.38 1.04,-0.59 1.54,-0.98 0.2,-0.28 0.35,-0.6 0.13,-0.78 z m -27.33,-0.13 -3.88,-22.46 29.9,-5.24 c 0.13,-0.02 0.25,0.06 0.28,0.23 l 1.18,5.45 c -0.43,0.11 -0.83,0.2 -1.17,0.26 -1.21,0.23 -5.16,0.82 -5.76,0.96 -1.2,0.27 -1.69,0.67 -2.13,0.94 -1.51,0.92 -4.37,3.62 -5.81,4.71 -0.44,0.38 -1.34,1.37 -1.79,1.75 -1.43,1.31 -3.7,3.38 -4,3.75 -0.76,1.05 -0.25,2.09 0.59,2.95 0.84,0.86 2.39,0.72 2.59,0.7 0.61,-0.06 1.14,-0.18 1.74,-0.44 0.86,-0.35 4.5,-2.84 5.49,-3.46 l 0.52,-0.33 c 0.21,-0.15 0.33,0 0.14,0.16 -0.18,0.16 -0.34,0.35 -0.34,0.35 l -0.34,0.35 c -1.12,1.2 -2.31,2.33 -3.51,3.4 -1.89,1.75 -3.92,3.37 -6.04,4.86 -0.66,0.54 -1.38,1.03 -2.06,1.56 l -5.78,1.06 c 0.17,-0.39 0.27,-1.01 0.19,-1.52 z m -2.44,1.44 c -0.23,0.33 -0.58,0.55 -0.98,0.62 l -0.22,0.04 c -0.82,0.14 -1.6,-0.41 -1.75,-1.23 l -3.58,-20.69 c 0.27,0.15 0.54,0.24 0.82,0.24 0.2,0 0.41,-0.01 0.62,-0.04 0.66,-0.09 1.33,-0.33 1.76,-0.85 l 3.58,20.8 c 0.07,0.4 -0.02,0.8 -0.25,1.13 z m 8.54,-55.14 c 0.99,0.47 2.47,0.68 3.72,0.03 0.66,-0.29 1.11,-0.81 1.11,-1.54 0,-0.31 -0.15,-0.58 -0.45,-0.78 l -0.65,-0.29 c -0.22,-0.09 -0.39,-0.42 -0.33,-0.78 0.03,-0.18 0.13,-0.52 0.21,-0.69 0.45,-1.13 1.19,-2.12 2.2,-2.87 l 0.04,-0.04 2.16,2.6 c 0.12,0.3 0.18,0.6 0.25,0.93 0.11,0.43 -0.05,0.74 -0.32,0.88 -0.05,0.03 -0.09,0.04 -0.13,0.05 -0.05,0.02 -0.43,0.18 -0.46,0.21 -0.44,0.26 -0.54,0.63 -0.39,1.08 0.14,0.48 0.42,0.85 0.88,1.16 1.3,0.75 2.76,0.57 3.89,-0.01 0.15,-0.08 0.36,-0.22 0.51,-0.37 0.3,-0.3 0.46,-0.58 0.46,-1.02 0,-0.15 -0.02,-0.28 -0.04,-0.41 0,-0.08 -0.02,-0.16 -0.02,-0.24 0,-0.31 0.12,-0.58 0.23,-0.87 0.16,-0.48 0.48,-0.84 0.98,-1.09 0.57,-0.28 1.21,-0.36 1.95,-0.23 0.05,0 0.11,0 0.15,0.01 l -0.06,0.12 c -0.45,0.18 -0.78,0.54 -1.1,1.04 -0.07,0.13 -0.16,0.22 -0.21,0.33 -0.05,0.11 -0.09,0.22 -0.16,0.35 -0.32,0.71 -0.53,1.51 -0.6,2.34 -0.03,0.45 -0.1,1.09 -0.1,1.58 l -0.4,-0.04 c -1.82,-0.08 -3.31,-0.16 -4.95,-0.19 -0.98,-0.01 -1.97,-0.06 -2.94,-0.06 h -0.16 l -4.61,0.18 c 0,0 -2.11,0.05 -2.36,0.06 -0.25,0.02 -0.29,-0.12 -0.3,-0.21 -0.04,-0.3 -0.04,-0.61 -0.07,-0.89 -0.07,-0.58 -0.2,-1.17 -0.33,-1.78 l -0.08,-0.23 c -0.11,-0.32 -0.22,-0.69 -0.38,-0.99 -0.23,-0.65 -0.71,-1.19 -1.3,-1.5 0.61,-0.1 1.23,-0.04 1.77,0.18 0.71,0.3 1.44,0.97 1.46,1.62 0.02,0.6 -0.1,0.56 -0.1,0.98 0,0.71 0.78,1.26 1.04,1.38 z m 13.63,3.96 c 0,0.47 -0.04,0.53 -0.45,0.51 -0.41,-0.02 -1.81,-0.17 -2.57,-0.22 -3.49,-0.21 -5.22,-0.22 -7.51,-0.14 -2.68,0.1 -4.27,0.32 -4.27,0.32 h -0.51 c -0.16,0 -0.21,-0.31 -0.21,-0.54 0,-0.25 0,-0.5 0,-0.71 0,-0.11 0.09,-0.16 0.2,-0.16 0.11,0 2.6,-0.13 2.6,-0.13 0.38,-0.02 0.75,-0.05 1.13,-0.08 0.78,-0.05 1.06,-0.1 2.64,-0.12 2.4,-0.03 4.74,0.02 5.96,0.1 1.22,0.08 2.7,0.23 2.7,0.23 0.25,0 0.27,0.11 0.27,0.11 0.02,0.03 0.02,0.69 0.02,0.83 z m -7.75,2.09 c 11.28,0 14.85,3.04 17.75,5.33 0.54,0.43 1.01,0.91 1.54,1.33 0.27,0.25 0.52,0.32 1,0.17 4.84,-1.66 10.84,-0.35 13.89,2.42 -12.44,0 -55.25,0.02 -68.35,0.02 3.25,-2.81 9.27,-4.1 14.11,-2.44 0.48,0.12 0.72,0.07 1,-0.17 0.52,-0.42 0.99,-0.9 1.54,-1.33 2.82,-2.23 6.25,-5.33 17.54,-5.33 z m 5.36,-50.62 c 0,-0.75 0.13,-1.5 0.36,-2.14 0.04,-0.07 0.07,-0.15 0.11,-0.25 0.02,-0.07 0.05,-0.15 0.09,-0.22 l 0.02,-0.06 c 0.08,-0.17 0.18,-0.36 0.2,-0.39 h 37.32 c 0.56,0 1.01,0.45 1.01,1.01 v 61.44 c 0,0.41 -0.11,0.48 -0.69,0.48 h -6.53 c -3.79,-4.29 -10.54,-6.48 -16.78,-4.69 -0.19,0.05 -0.4,0.02 -0.55,-0.12 -0.25,-0.22 -0.48,-0.46 -0.77,-0.68 -2.33,-1.81 -4.75,-3.74 -9.6,-4.92 -0.02,-0.17 -0.02,-0.32 -0.02,-0.39 v -3.69 c 0,-0.77 0.13,-1.58 0.38,-2.33 0.05,-0.29 0.18,-0.59 0.32,-0.84 0.04,-0.04 0.08,-0.1 0.12,-0.16 0.02,-0.04 0.05,-0.07 0.07,-0.09 0.06,-0.07 0.23,-0.12 0.31,-0.09 l 0.36,0.18 c 0.19,0.12 0.32,0.19 0.45,0.25 0.13,0.1 0.3,0.1 0.45,0.1 0.51,0 0.87,-0.35 0.87,-0.87 0,-0.39 0,-0.74 -0.14,-1.15 -0.29,-0.94 -0.95,-1.67 -1.8,-2 -1.02,-0.45 -2.21,-0.49 -3.42,-0.14 -0.98,0.28 -1.84,0.97 -2.3,1.81 -0.07,0.09 -0.03,0.19 -0.08,0.29 v -8.4 c 0.11,0 8.17,-0.02 8.17,-0.02 1.37,0.02 2.4,0.61 3.29,1.17 0.25,0.2 0.53,0.36 0.79,0.51 0.09,0.05 0.5,0.31 0.64,0.31 0.15,0 0.25,-0.1 0.28,-0.13 0.13,-0.13 0.13,-0.28 0.13,-0.35 v -0.64 c 0.07,-3.6 -0.02,-9.82 -0.02,-12.27 v -0.07 c -0.07,-0.18 -0.23,-0.25 -0.31,-0.29 -0.08,-0.03 -0.21,-0.05 -0.41,0.05 0,0 -0.83,0.64 -0.96,0.7 -0.9,0.61 -1.9,0.93 -3.04,0.99 -0.63,0.07 -1.27,0.07 -1.9,0.07 H 163 c -0.22,0 -0.99,-0.02 -1.23,-0.04 -0.25,-0.02 -0.26,-0.3 -0.26,-0.55 v -4.87 c 0,-0.27 0.1,-0.32 0.32,-0.32 h 4.34 c 1.1,0 2.22,0.31 3.16,0.87 0.32,0.2 0.62,0.35 1.01,0.54 l 0.25,0.13 0.15,0.06 c 0.18,0.08 0.43,-0.09 0.49,-0.32 0.05,-0.18 0.05,-0.57 0.05,-0.67 v -11.25 c 0,0 0,-0.59 0,-0.59 0,-0.32 -0.25,-0.4 -0.41,-0.37 -0.08,0.02 -0.34,0.1 -0.34,0.1 -0.34,0.13 -0.68,0.33 -1,0.53 -0.84,0.55 -1.83,0.73 -2.84,0.79 -0.96,0.06 -1.94,0.06 -2.87,0.06 0,0 -1.48,-0.02 -1.8,-0.02 -0.32,0 -0.29,-0.14 -0.29,-0.4 v -5.66 z m -9,-2.76 c 0,0 -0.05,-0.16 -0.05,-0.3 l 7.29,0.04 c -0.02,0.12 -0.06,0.35 -0.09,0.45 -0.25,0.89 -0.4,1.93 -0.4,3.49 v 6.48 c 0,0.13 0,0.32 0.17,0.48 0.16,0.17 0.4,0.17 0.85,0.16 h 5.16 c 0.6,0.06 1.25,0.02 1.98,-0.13 0.4,-0.06 0.72,-0.13 1.1,-0.25 0.08,0 0.15,-0.02 0.21,-0.04 0.05,-0.02 0.1,-0.02 0.14,-0.02 h 0.03 v 6.96 c -0.05,0 -0.1,-0.02 -0.15,-0.03 -0.06,-0.02 -0.13,-0.02 -0.2,-0.06 -0.86,-0.26 -1.72,-0.39 -2.63,-0.39 h -5.74 l -0.15,0.02 c -0.71,0.06 -0.76,0.19 -0.76,0.98 v 8.43 c 0,0.25 0.22,0.42 0.42,0.42 h 5.33 l 4.42,-0.07 c 0.85,0.06 1.72,-0.05 2.65,-0.33 0.16,-0.05 0.25,-0.08 0.35,-0.12 0.13,-0.05 0.18,0 0.18,0.09 0,0.11 0,0.25 0,0.38 v 6.46 c 0,0.07 -0.06,0.07 -0.09,0.06 -0.05,-0.02 -0.11,-0.03 -0.16,-0.05 l -0.09,-0.03 c -0.85,-0.26 -1.76,-0.39 -2.7,-0.39 h -9.04 c -0.14,0 -0.31,0 -0.51,0 -0.47,0 -0.69,0.27 -0.71,0.49 -0.03,0.22 -0.03,0.44 -0.03,0.71 v 7.42 c 0,0 -0.11,-0.49 -0.29,-0.85 -0.21,-0.43 -1.24,-1.42 -1.96,-1.9 -0.46,-0.41 -1.23,-0.39 -1.69,-0.03 -0.71,0.48 -1.24,0.93 -1.91,1.75 -0.11,0.17 -0.45,0.66 -0.44,1.02 v -8.22 c 0,-0.25 -0.28,-0.41 -0.48,-0.41 h -9.18 c -0.59,0 -1.1,0 -1.67,0.07 -0.58,0 -1.17,0.1 -1.83,0.32 -0.08,0.02 -0.18,0.06 -0.18,-0.07 v -6.83 c 0.05,0.02 0.1,0.02 0.15,0.04 0.07,0 0.13,0.02 0.2,0.05 0.35,0.12 0.75,0.18 1.11,0.24 l 0.14,0.02 c 0.31,0.06 0.72,0.14 1.14,0.14 h 9.29 c 0.14,0 0.29,-0.01 0.45,-0.04 0.14,-0.02 0.27,-0.03 0.39,-0.03 0.25,0 0.48,-0.23 0.48,-0.48 v -8.78 c 0,-0.15 -0.15,-0.33 -0.31,-0.39 -0.12,-0.09 -0.24,-0.09 -0.31,-0.09 h -5.77 c -1.21,0 -2.35,0.25 -3.19,0.45 l -0.28,0.06 h -0.03 v -6.99 l 0.35,0.05 c 0.84,0.26 1.71,0.4 2.56,0.4 h 5.69 c 0.27,0 0.55,0 0.88,-0.09 0.14,-0.07 0.38,-0.19 0.38,-0.46 v -6.78 c 0.06,-1.08 -0.09,-2.24 -0.46,-3.48 z m -41,0.71 c 0,-0.56 0.45,-1.01 1.01,-1.01 h 37.26 c 0,0 0.15,0.15 0.19,0.24 0.05,0.09 0.09,0.18 0.12,0.28 0.29,0.71 0.44,1.37 0.44,1.99 0.06,0.57 0.06,1.14 0.06,1.71 v 4.51 c 0,0.32 -0.04,0.42 -0.28,0.42 h -3.76 c -0.58,0 -1.07,-0.07 -1.62,-0.19 -0.81,-0.18 -1.56,-0.5 -2.24,-0.94 -0.15,-0.09 -0.3,-0.18 -0.44,-0.28 -0.15,-0.1 -0.29,-0.2 -0.41,-0.26 -0.13,-0.13 -0.28,-0.13 -0.35,-0.13 -0.22,0 -0.31,0.1 -0.34,0.19 -0.08,0.12 -0.08,0.28 -0.08,0.35 v 12.35 c 0,0.05 0.02,0.09 0.02,0.11 0.11,0.35 0.46,0.28 0.58,0.22 0,0 0.22,-0.09 0.28,-0.15 l 1.07,-0.57 c 0.92,-0.52 1.93,-0.72 2.9,-0.72 h 4.61 c 0.17,0 0.29,-0.02 0.29,0.15 0.05,1.48 0.05,4.71 0.04,5.48 0,0.12 -0.1,0.21 -0.22,0.21 h -8.25 c -0.98,0 -2.04,-0.31 -2.89,-0.87 0,0 -1.31,-0.74 -1.33,-0.75 -0.07,-0.02 -0.13,-0.04 -0.2,-0.05 -0.31,-0.02 -0.42,0.21 -0.42,0.41 V 158 c 0,0.23 0.28,0.35 0.42,0.35 0.08,0 0.25,0 0.38,-0.1 0.38,-0.18 0.77,-0.38 1.14,-0.63 1.02,-0.55 2,-0.81 2.97,-0.81 h 7.76 l 0.61,0.03 v 8.8 c 0,0 -0.02,-0.03 -0.02,-0.05 -0.04,-0.08 -0.08,-0.17 -0.12,-0.28 -0.53,-1.21 -1.67,-2.04 -3.06,-2.25 -0.87,-0.13 -1.75,-0.06 -2.53,0.2 -0.97,0.28 -1.8,1.11 -2.07,2.07 -0.18,0.51 -0.16,1.04 -0.12,1.28 l 0.08,0.27 c 0.09,0.25 0.23,0.34 0.44,0.44 0.22,0.1 0.46,0.12 0.69,0.02 0.06,-0.03 0.13,-0.06 0.21,-0.09 0.08,-0.03 0.17,-0.07 0.21,-0.09 0.12,-0.04 0.22,-0.1 0.31,-0.15 0.07,-0.05 0.14,-0.08 0.19,-0.11 0.21,-0.05 0.28,0.02 0.36,0.14 0.17,0.16 0.28,0.4 0.41,0.63 0.17,0.39 0.37,0.91 0.43,1.43 0.06,0.37 0.12,0.75 0.12,1.11 v 4.25 c -4.76,1.21 -6.99,3.15 -9.12,4.83 -0.2,0.16 -0.38,0.35 -0.57,0.51 -0.27,0.24 -0.65,0.31 -0.99,0.22 -6.18,-1.67 -13.02,0.53 -16.76,4.77 h -6.27 c -1.01,0 -1.1,-0.26 -1.1,-1.1 v -60.84 z m 0,65.04 c 0,-0.57 0.09,-0.75 0.62,-0.75 h 73.92 c 0,0 0,0 0,0 h 3.42 c -2.99,3.02 -7.98,7.86 -8.86,8.63 -1.71,1.46 -3.48,2.87 -5.3,3.93 -0.43,0.26 -0.89,0.48 -1.35,0.68 l -1,-4.78 c -0.26,-1.46 -1.65,-2.44 -3.11,-2.19 l -30.84,5.33 v 0.02 c -0.57,0.08 -1.03,0.57 -1.04,1.17 -0.03,1.32 -0.88,1.63 -1.57,1.72 -0.22,0.03 -1.22,0.28 -1.65,-1.07 -0.21,-0.65 -0.74,-1.04 -1.39,-0.84 -0.54,0.17 -0.87,0.67 -0.86,1.2 0,0 0,0.02 0,0.03 0,0.03 0,0.07 0,0.1 0,0.04 0,0.09 0,0.13 l 3.97,22.98 c 0.33,1.93 1.86,3.32 3.76,3.32 0.22,0 0.45,-0.02 0.68,-0.06 l 0.22,-0.04 c 0.11,-0.02 0.33,-0.06 0.33,-0.06 l 6.65,-1.2 c 0.05,0.56 0.35,0.92 0.42,0.95 0.59,0.49 1.3,0.77 2.05,0.77 0.55,0.02 1.16,-0.04 1.69,-0.23 l 0.53,-0.18 c 0.33,-0.1 0.68,-0.06 1.03,0.04 l 0.28,0.11 c 0.78,0.27 1.54,0.51 2.29,0.44 l 0.95,-0.09 c 0.34,-0.03 0.68,0 0.98,0.18 0.78,0.34 1.62,0.53 2.44,0.53 0.62,0.01 1.3,-0.05 1.9,-0.17 0.6,-0.13 1.28,-0.19 1.9,-0.11 1.44,0.07 3.1,0.31 4.51,0.05 0.67,-0.13 1.34,-0.33 2,-0.53 l 1.99,-0.66 c 0.33,-0.1 0.59,-0.26 0.92,-0.43 1.1,-0.65 2.06,-1.84 2.78,-2.94 l 0.35,-0.58 c 1.84,-3.04 3.51,-6.09 5.35,-9.12 0.84,-1.31 1.75,-2.48 2.82,-3.54 1.06,-1.06 2.2,-2.05 3.49,-2.85 l 11.3,-8.02 c 0.16,-0.13 0.37,-0.26 0.55,-0.35 v 20.57 c 0,13.94 -11.26,24.33 -18.82,27.9 -11.89,5.62 -15.98,7.41 -24.92,11.34 l -0.37,0.16 c -0.25,0.11 -0.54,0.11 -0.78,0 l -2.6,-1.14 c -7.44,-3.26 -11.93,-5.23 -22.8,-10.37 -7.56,-3.58 -18.82,-13.96 -18.82,-27.9 v -32.09 z"
       id="path26"
       style="fill:#000000" /></g><g
     id="g1"
     inkscape:groupmode="layer"
     inkscape:label="1"
     transform="translate(1658.7901,-1.19)"><path
       id="path1"
       d="m 269.023,150.473 c -4.152,0 -8.308,0 -12.464,-0.149 -0.465,-9.66 -0.305,-22.187 -0.305,-45.429 v -0.149 c 34.168,0 35.715,1.207 37.867,6.488 l 0.77,-0.453 c -0.614,-2.863 -0.77,-4.679 -0.77,-7.843 0,-3.016 0.156,-5.129 0.77,-7.997 l -0.77,-0.148 c -1.695,5.281 -3.543,6.035 -37.867,6.488 0,-21.129 -0.16,-30.789 0.305,-42.863 4.312,-0.449 8.468,-0.301 12.316,-0.301 15.547,0 27.703,2.266 35.559,9.36 l 0.769,-0.758 c -0.922,-2.114 -3.695,-9.957 -3.695,-11.766 h -51.262 c -2.312,0 -8.617,0 -10.777,-0.758 l -0.16,0.758 c 3.078,1.059 4.621,3.172 4.769,6.336 0.469,9.66 0.309,19.77 0.309,43.164 0,23.692 0.16,33.203 -0.309,43.012 -0.156,2.566 -1.691,4.832 -4.769,6.488 l 0.16,0.598 c 2.308,-0.449 8.308,-0.598 10.777,-0.598 h 56.496 c 0,-1.359 4.77,-10.262 5.543,-11.769 l -0.773,-0.758 c -9.696,7.09 -25.551,9.047 -42.489,9.047 z"
       style="fill:#000000;fill-opacity:1;fill-rule:nonzero;stroke:none"
       transform="scale(1.3333333)" /><path
       id="path2"
       d="m 358.926,150.473 c -2.922,0 -6,0 -9.082,-0.149 -0.465,-9.66 -0.305,-22.336 -0.305,-45.879 0,-23.394 -0.16,-33.504 0.305,-43.164 0.16,-3.172 1.695,-5.277 4.769,-6.336 l -0.156,-0.757 c -2.004,0.757 -8.469,0.757 -10.777,0.757 -2.309,0 -8.618,0 -10.926,-0.757 l -0.16,0.757 c 3.078,1.059 4.621,3.172 4.769,6.336 0.465,9.66 0.309,19.77 0.309,43.164 0,23.692 0.156,33.203 -0.309,43.012 -0.156,2.566 -1.691,4.832 -4.769,6.488 l 0.16,0.602 c 2.308,-0.453 8.308,-0.602 10.777,-0.602 h 53.879 c 0,-1.507 4.621,-10.261 5.387,-11.769 l -0.774,-0.754 c -10.464,7.691 -25.703,9.199 -43.097,9.051 z"
       style="fill:#000000;fill-opacity:1;fill-rule:nonzero;stroke:none"
       transform="scale(1.3333333)" /><path
       id="path3"
       d="m 392.641,54.945 c 0,1.207 -2.926,9.961 -3.7,11.926 l 0.774,0.598 c 10.469,-7.094 23.094,-9.051 37.719,-8.903 v 45.879 c 0,23.692 0.156,33.203 -0.309,43.012 -0.156,3.016 -1.695,4.832 -4.926,6.488 l 0.156,0.602 c 2.153,-0.453 8.469,-0.602 10.926,-0.602 2.461,0 8.617,0.149 10.778,0.602 l 0.308,-0.602 c -3.23,-1.507 -4.769,-3.621 -4.926,-6.488 -0.464,-9.809 -0.308,-19.32 -0.308,-43.012 V 58.566 c 14.773,-0.148 27.09,1.508 37.558,8.903 l 0.774,-0.758 c -0.774,-1.965 -3.699,-10.566 -3.699,-11.766 z"
       style="fill:#000000;fill-opacity:1;fill-rule:nonzero;stroke:none"
       transform="scale(1.3333333)" /><path
       id="path4"
       d="m 526.402,150.473 c -4.156,0 -8.308,0 -12.464,-0.149 -0.465,-9.66 -0.309,-22.187 -0.309,-45.429 v -0.149 c 34.172,0 35.715,1.207 37.867,6.488 l 0.774,-0.453 c -0.614,-2.863 -0.774,-4.679 -0.774,-7.843 0,-3.016 0.16,-5.129 0.774,-7.997 l -0.774,-0.148 c -1.695,5.281 -3.539,6.035 -37.867,6.488 0,-21.129 -0.156,-30.789 0.309,-42.863 4.312,-0.449 8.468,-0.301 12.316,-0.301 15.547,0 27.703,2.266 35.555,9.36 l 0.773,-0.758 c -0.922,-2.114 -3.695,-9.957 -3.695,-11.766 h -51.266 c -2.309,0 -8.617,0 -10.777,-0.758 l -0.156,0.758 c 3.074,1.059 4.621,3.172 4.769,6.336 0.465,9.66 0.309,19.77 0.309,43.164 0,23.692 0.156,33.203 -0.309,43.012 -0.156,2.566 -1.695,4.832 -4.769,6.488 l 0.156,0.598 c 2.312,-0.449 8.312,-0.598 10.777,-0.598 h 56.5 c 0,-1.359 4.77,-10.262 5.543,-11.769 l -0.773,-0.758 c -9.7,7.09 -25.555,9.047 -42.489,9.047 z"
       style="fill:#000000;fill-opacity:1;fill-rule:nonzero;stroke:none"
       transform="scale(1.3333333)" /><path
       id="path5"
       d="m 177.766,101.297 c 0,-2.418 -0.114,-4.856 -0.34,-7.254 -0.02,-0.242 -0.238,-0.422 -0.485,-0.398 l -0.668,0.066 c -0.242,0.023 -0.414,0.242 -0.39,0.48 0.219,2.348 0.328,4.743 0.328,7.106 0,41.609 -33.852,75.465 -75.465,75.465 -41.609,0 -75.465,-33.856 -75.465,-75.465 0,-19.586 7.465,-38.141 21.024,-52.262 13.418,-13.973 31.402,-22.172 50.691,-23.113 0.242,-0.016 0.43,-0.219 0.422,-0.461 l -0.031,-0.664 c -0.008,-0.25 -0.215,-0.438 -0.465,-0.43 -19.688,0.969 -38.047,9.336 -51.734,23.594 -13.836,14.41 -21.458,33.355 -21.458,53.336 0,42.465 34.551,77.015 77.016,77.015 42.465,0 77.02,-34.55 77.02,-77.015 z"
       style="fill:#000000;fill-opacity:1;fill-rule:nonzero;stroke:none"
       transform="scale(1.3333333)" /><path
       id="path6"
       d="M 100.926,0 C 73.973,0 48.621,10.5 29.566,29.559 10.5,48.621 0,73.965 0,100.926 c 0,20.769 6.246,40.687 18.074,57.652 0.145,0.203 0.422,0.25 0.625,0.113 l 0.539,-0.382 c 0.203,-0.141 0.246,-0.411 0.106,-0.614 C 7.574,140.82 1.418,120.977 1.547,100.305 1.711,73.77 12.547,48.316 31.539,29.781 50.219,11.551 74.836,1.539 100.988,1.551 c 26.348,0.023 51.571,10.48 70.2,29.109 18.847,18.848 29.199,43.942 29.109,70.613 -0.094,26.274 -10.531,51.352 -29.109,69.93 -18.774,18.774 -43.727,29.106 -70.266,29.106 -2.942,0 -5.906,-0.125 -8.82,-0.383 -0.243,-0.02 -0.461,0.16 -0.481,0.398 l -0.062,0.66 c -0.02,0.25 0.16,0.465 0.406,0.489 2.961,0.261 5.969,0.39 8.957,0.39 26.953,0 52.305,-10.5 71.359,-29.558 19.067,-19.067 29.559,-44.407 29.559,-71.364 0,-26.953 -10.5,-52.304 -29.559,-71.363 C 153.234,10.5 127.883,0 100.926,0 Z"
       style="fill:#000000;fill-opacity:1;fill-rule:nonzero;stroke:none"
       transform="scale(1.3333333)" /><path
       id="path7"
       d="m 99.699,38.281 c -0.097,0.035 -0.195,0.059 -0.285,0.082 -0.137,0.035 -0.258,0.075 -0.375,0.121 -0.887,0.289 -1.66,0.883 -2.16,1.641 -0.098,0.098 -0.152,0.195 -0.195,0.285 -0.098,0.195 -0.293,0.328 -0.512,0.336 -0.125,0.024 -0.238,0.047 -0.352,0.063 -0.113,0.019 -0.226,0.035 -0.343,0.058 -0.926,0.149 -1.883,0.375 -3.032,0.707 -4.402,1.235 -8.492,3.555 -11.82,6.719 -2.355,2.227 -4.289,4.852 -5.766,7.801 -0.047,0.082 -0.086,0.179 -0.129,0.277 -0.039,0.09 -0.082,0.18 -0.113,0.246 -0.113,0.164 -0.09,0.367 0.055,0.504 0.101,0.125 0.199,0.246 0.297,0.359 l 0.277,0.336 c 0.383,0.45 0.871,1.051 1.27,1.719 0.367,0.555 0.726,1.207 1.101,2.004 0.985,2.055 1.727,3.949 2.258,5.797 0.254,0.824 0.48,1.695 0.699,2.535 0.098,0.375 0.192,0.758 0.289,1.133 0.129,0.492 0.25,0.98 0.375,1.461 0.129,0.488 0.25,0.969 0.375,1.476 0.047,0.137 0.121,0.258 0.364,0.262 l 2.519,-0.289 c 0.531,-0.086 1.02,-0.121 1.559,-0.168 l 1.273,-0.117 c 0.543,-0.039 1.113,-0.082 1.688,-0.121 l 1.937,-0.121 c 0.824,-0.035 1.649,-0.082 2.391,-0.121 l 0.113,-0.004 c 0.707,-0.039 1.367,-0.078 2.07,-0.078 2.11,-0.059 4.297,-0.098 6.407,-0.059 0.652,0.008 1.296,0.023 1.964,0.023 0.875,0 1.77,0.036 2.633,0.075 0.442,0.023 0.875,0.039 1.328,0.05 0.18,0 0.352,0.008 0.524,0.024 0.179,0.008 0.344,0.023 0.539,0.023 l 2.062,0.121 2.184,0.164 c 0.375,0.043 0.742,0.083 1.156,0.129 l 2.43,0.246 2.25,0.293 h 0.125 c 0.105,0 0.172,-0.074 0.226,-0.128 0.075,-0.075 0.083,-0.157 0.083,-0.211 0.105,-0.383 0.203,-0.758 0.308,-1.133 0.106,-0.379 0.207,-0.762 0.305,-1.153 l 0.039,-0.164 c 0.066,-0.285 0.144,-0.578 0.246,-0.871 0.023,-0.097 0.055,-0.187 0.078,-0.269 0.027,-0.098 0.066,-0.196 0.082,-0.301 0.402,-1.492 0.824,-3.047 1.356,-4.531 0.511,-1.492 1.089,-2.879 1.761,-4.231 0.766,-1.484 1.621,-2.773 2.621,-3.922 l 0.067,-0.074 c 0.261,-0.211 0.269,-0.562 0.133,-0.808 l -0.012,-0.071 c -3.836,-7.949 -11.32,-13.687 -20.035,-15.344 -0.449,-0.082 -0.946,-0.164 -1.434,-0.246 l -0.035,-0.007 c -0.156,0 -0.301,-0.098 -0.359,-0.243 l -0.024,-0.05 -0.023,-0.024 c -0.008,-0.023 -0.024,-0.051 -0.051,-0.082 -0.547,-0.953 -1.473,-1.648 -2.59,-1.949 -0.105,-0.039 -0.207,-0.07 -0.336,-0.106 -0.008,-0.015 -0.015,-0.039 -0.023,-0.058 -0.016,-0.031 -0.028,-0.078 -0.035,-0.086 -0.039,-0.523 -0.039,-1.055 -0.008,-1.551 l 0.027,-0.098 0.047,-0.046 c 0.016,-0.004 0.082,-0.004 0.113,-0.004 h 0.66 c 0.09,0 0.18,-0.008 0.262,-0.024 0.074,-0.008 0.149,-0.023 0.231,-0.023 0.16,0 0.269,-0.141 0.269,-0.238 l 0.047,-0.219 c 0.047,-0.293 0.008,-0.547 -0.031,-0.809 l -0.008,-0.031 c 0,-0.145 -0.109,-0.246 -0.231,-0.262 -0.105,-0.047 -0.203,-0.047 -0.285,-0.047 l -0.734,0.008 c -0.121,0.031 -0.25,0 -0.348,-0.031 l -0.043,-0.043 c -0.007,-0.016 -0.007,-0.082 -0.007,-0.113 v -1.567 l -0.024,-0.082 -0.043,-0.047 c -0.039,-0.05 -0.113,-0.14 -0.25,-0.14 h -1.035 c -0.148,0 -0.352,0.027 -0.352,0.304 v 1.516 c 0,0.008 -0.007,0.024 -0.007,0.039 -0.008,0.031 -0.024,0.067 -0.028,0.113 l -0.031,0.028 c -0.016,0.008 -0.082,0.008 -0.113,0.008 h -0.66 c -0.172,0 -0.391,0 -0.54,0.039 -0.121,0 -0.269,0.148 -0.261,0.23 -0.09,0.356 -0.09,0.75 0.015,1.133 0.028,0.055 0.102,0.203 0.289,0.203 h 1.286 c 0.035,0 0.058,0.016 0.058,0.023 v 1.731 c 0.016,0.016 -0.015,0.055 -0.043,0.07 z m -0.765,14.188 c 0.343,-0.305 0.765,-0.5 1.25,-0.582 0.152,-0.032 0.308,-0.039 0.464,-0.039 0.286,0 0.579,0.039 0.872,0.121 0.382,0.109 0.734,0.304 1.019,0.547 0.652,0.57 1.117,1.363 1.277,2.187 0.082,0.406 0.118,0.82 0.118,1.254 v 6.969 c 0,0.008 -0.02,0.023 -0.059,0.023 h -6.344 c -0.008,0 -0.023,-0.023 -0.023,-0.062 v -7.305 c 0,-0.457 0.051,-0.832 0.156,-1.16 0.172,-0.707 0.633,-1.399 1.27,-1.953 z m -0.356,-5.66 c 0.274,0.113 0.512,0.203 0.844,0.293 0.906,0.246 1.918,0.187 2.848,-0.168 l 0.343,-0.11 c -0.082,0.418 -0.125,0.809 -0.164,1.207 -0.035,0.571 -0.125,1.153 -0.211,1.739 0,0.234 -0.035,0.457 -0.082,0.718 l -1.152,-0.246 c -0.129,-0.023 -0.27,-0.031 -0.422,-0.031 -0.148,0 -0.309,0.008 -0.465,0.039 l -0.937,0.211 c -0.039,0.023 -0.075,0.023 -0.129,0.023 l -0.028,-0.031 -0.211,-1.726 c -0.046,-0.586 -0.128,-1.168 -0.21,-1.77 -0.016,-0.043 -0.024,-0.098 -0.024,-0.148 z m -1.844,-1.278 c 0.024,-0.008 0.032,-0.008 0.032,-0.008 0.007,0.008 0.015,0.024 0.031,0.071 l 0.035,0.058 c 0,0.008 0,0.047 0.008,0.09 0.047,0.285 0.074,0.563 0.105,0.856 0.032,0.261 0.059,0.523 0.098,0.793 0.035,0.285 0.082,0.586 0.121,0.886 0.043,0.301 0.082,0.602 0.125,0.887 l 0.25,2.039 c 0.027,0.121 0,0.231 -0.086,0.313 l -0.027,0.039 c -0.031,0.058 -0.106,0.136 -0.188,0.218 -0.758,0.84 -1.23,1.899 -1.359,3.043 -0.082,0.547 -0.082,1.059 -0.082,1.59 v 5.86 l 0.015,0.636 -1.085,0.059 c 0,0 -0.055,-0.035 -0.063,-0.18 -0.023,-0.156 -0.023,-0.261 -0.023,-0.433 l -0.125,-3.426 c 0,-0.91 -0.047,-1.84 -0.082,-2.738 -0.047,-0.489 -0.09,-0.895 -0.211,-1.344 -0.219,-0.879 -0.707,-1.68 -1.36,-2.258 -0.328,-0.328 -0.75,-0.629 -1.183,-0.848 -0.75,-0.418 -1.649,-0.597 -2.512,-0.507 -1.191,0.082 -2.266,0.644 -3.031,1.574 -0.614,0.695 -1.02,1.508 -1.192,2.34 -0.097,0.57 -0.121,1.062 -0.082,1.523 0.043,0.539 0.125,1.094 0.246,1.625 0.332,1.777 0.707,3.578 1.075,5.324 v 0.032 l 0.027,0.031 c 0.008,0.015 0.008,0.043 0.008,0.043 -0.008,0.008 -0.016,0.023 -0.028,0.031 -0.062,0.031 -0.121,0.059 -0.187,0.059 l -0.766,0.121 h -0.09 c -0.074,-0.129 -0.105,-0.254 -0.144,-0.434 -0.492,-1.523 -1.133,-3.121 -1.949,-4.891 l -0.375,-0.75 c -0.418,-0.714 -1.051,-1.312 -1.793,-1.71 l -0.141,-0.067 c -0.031,-0.023 -0.09,-0.066 -0.098,-0.062 0,0 0.008,-0.02 0.051,-0.082 1.563,-2.465 3.629,-4.649 5.985,-6.313 2.394,-1.687 5.027,-2.918 7.832,-3.644 0.66,-0.145 1.425,-0.317 2.218,-0.446 z m -3.57,17.184 v 0.375 c 0,0.047 -0.016,0.058 -0.074,0.058 l -5.106,0.414 c 0,0 -0.007,-0.007 -0.031,-0.046 -0.015,-0.02 -0.023,-0.067 -0.031,-0.102 -0.008,-0.055 -0.024,-0.105 -0.043,-0.168 l -0.168,-0.762 c -0.32,-1.496 -0.621,-2.906 -0.906,-4.375 -0.043,-0.222 -0.082,-0.441 -0.129,-0.66 -0.035,-0.215 -0.082,-0.433 -0.117,-0.66 -0.196,-1.101 0.187,-2.242 1.043,-3.059 0.187,-0.226 0.418,-0.382 0.703,-0.546 0.57,-0.348 1.312,-0.43 1.996,-0.235 1.215,0.317 2.129,1.246 2.453,2.5 0.074,0.262 0.117,0.574 0.117,0.867 0.039,1.075 0.082,2.184 0.121,3.75 0,0.594 0.09,1.645 0.172,2.649 z m 3.203,-18.742 c -0.008,0 -0.008,0 0,0 -0.008,0 -0.008,0 0,0 z M 77.219,55.648 c 3.789,-6.546 10.164,-11.21 17.484,-12.8 0.328,-0.082 0.695,-0.164 1.07,-0.246 0.079,-0.024 0.153,-0.032 0.235,-0.04 0.066,-0.007 0.133,-0.015 0.211,-0.031 v 0.098 c 0,0.398 0.043,0.82 0.117,1.156 v 0.195 c -0.059,0.016 -0.109,0.024 -0.164,0.032 -0.082,0.011 -0.156,0.019 -0.211,0.043 -2.188,0.383 -4.297,1.05 -6.27,1.996 -3.113,1.469 -5.82,3.496 -8.046,6.015 -0.735,0.848 -1.442,1.786 -2.168,2.872 -0.09,0.171 -0.211,0.367 -0.313,0.515 L 79.141,55.5 c -0.016,0.051 -0.09,0.066 -0.145,0.066 l -0.492,-0.035 h -0.016 c -0.414,0 -0.847,0.02 -1.297,0.188 0.012,-0.031 0.02,-0.047 0.028,-0.071 z m 3.976,9.204 c -0.023,0.015 -0.066,0.023 -0.105,0.031 -0.043,0.008 -0.09,0.015 -0.137,0.039 -0.004,0 -0.012,-0.008 -0.019,-0.016 -0.008,-0.023 -0.016,-0.047 -0.024,-0.078 -0.015,-0.043 -0.023,-0.094 -0.047,-0.133 -0.402,-1.207 -0.929,-2.476 -1.656,-3.976 -0.508,-1.055 -1.168,-2.153 -1.941,-3.215 L 77.16,57.301 h 0.008 c 0.773,-0.219 1.477,-0.227 2.152,-0.047 0.246,0.07 0.516,0.18 0.801,0.324 0.586,0.27 1.059,0.75 1.336,1.336 0.441,0.965 0.902,1.973 1.277,3 0.125,0.352 0.246,0.688 0.375,1.035 0.118,0.336 0.246,0.68 0.368,1.028 0.027,0.089 0.058,0.171 0.066,0.246 -0.074,0.043 -0.137,0.074 -0.219,0.097 z m 38.821,1.554 -0.121,0.352 c -0.165,0.488 -0.321,0.953 -0.457,1.453 -0.083,0.309 -0.172,0.609 -0.27,0.902 -0.09,0.301 -0.188,0.598 -0.27,0.907 l -0.742,2.355 -0.015,0.023 c -0.047,0.118 -0.219,0.059 -0.36,0.036 l -3.644,-0.411 c -0.285,-0.023 -0.586,-0.054 -0.887,-0.082 -0.301,-0.031 -0.602,-0.062 -0.891,-0.082 l -4.121,-0.285 -0.379,-0.047 c -0.468,-0.015 -0.937,-0.031 -1.406,-0.05 -0.922,-0.039 -1.875,-0.079 -2.812,-0.079 -0.598,0 -1.192,-0.007 -1.789,-0.019 -0.602,-0.008 -1.196,-0.024 -1.793,-0.024 0,0 0,0 -0.008,0 -0.742,0.024 -1.473,0.032 -2.207,0.036 -0.735,0.007 -1.461,0.023 -2.203,0.047 -0.75,0 -1.5,0.046 -2.235,0.082 l -2.394,0.128 c -0.696,0.036 -1.364,0.082 -2.024,0.125 l -2.976,0.25 -1.524,0.165 -1.386,0.121 c -0.086,0 -0.098,-0.024 -0.114,-0.071 -0.039,-0.117 -0.082,-0.285 -0.121,-0.441 -0.172,-0.684 -0.359,-1.371 -0.539,-2.063 -0.25,-0.945 -0.504,-1.898 -0.75,-2.871 -0.074,-0.152 -0.113,-0.301 -0.152,-0.429 0,-0.012 0,-0.02 0.023,-0.036 l 0.293,-0.113 c 0.848,-0.254 1.664,-0.457 2.504,-0.613 0.641,-0.137 1.313,-0.234 1.957,-0.332 0.356,-0.051 0.707,-0.106 1.043,-0.164 0.285,-0.039 0.586,-0.074 0.879,-0.106 0.301,-0.031 0.602,-0.058 0.891,-0.105 0.738,-0.082 1.515,-0.164 2.304,-0.246 0.246,-0.024 0.473,-0.031 0.696,-0.039 0.226,-0.008 0.461,-0.024 0.707,-0.043 0.246,-0.024 0.504,-0.032 0.757,-0.039 0.262,-0.008 0.516,-0.024 0.766,-0.047 1.801,-0.082 3.645,-0.117 5.481,-0.117 1.117,0 2.242,0.035 3.332,0.074 0.562,0.015 1.125,0.039 1.703,0.051 0.574,0 1.183,0.039 1.769,0.078 0.293,0.011 0.578,0.035 0.856,0.051 l 4.699,0.328 c 0.699,0.039 1.367,0.129 2.019,0.203 0.93,0.121 1.891,0.25 2.836,0.414 l 0.082,0.015 c 0.84,0.157 1.68,0.321 2.473,0.481 0.098,0.019 0.188,0.043 0.27,0.074 0.086,0.031 0.175,0.059 0.265,0.074 -0.008,0.047 -0.015,0.09 -0.015,0.129 z m -6.602,-2.926 -0.035,0.036 h -0.27 c -0.25,0 -0.445,0 -0.691,-0.036 l -4.051,-0.343 h -0.105 v -0.168 c 0,-0.653 0,-1.274 0.039,-1.883 0.023,-0.231 0.027,-0.457 0.043,-0.688 0.008,-0.226 0.023,-0.449 0.039,-0.675 v -0.008 c 0.043,-1.035 0.043,-2.063 0.043,-3.059 0,-0.285 0.031,-0.543 0.07,-0.832 l 0.016,-0.097 c 0.035,-0.325 0.14,-0.641 0.312,-0.938 0.332,-0.578 0.813,-1.09 1.36,-1.434 1.168,-0.742 2.757,-0.539 3.687,0.465 0.473,0.555 0.766,1.157 0.879,1.785 0.082,0.473 0.082,0.915 0,1.348 -0.082,0.375 -0.156,0.746 -0.227,1.121 -0.074,0.367 -0.14,0.742 -0.222,1.117 -0.106,0.555 -0.219,1.11 -0.332,1.664 -0.11,0.555 -0.223,1.118 -0.328,1.665 l -0.211,0.902 c -0.016,0.012 -0.016,0.058 -0.016,0.058 z m 10.77,-6.097 c -0.028,0.043 -0.051,0.09 -0.098,0.133 -0.613,0.847 -1.207,1.832 -1.746,2.91 -0.629,1.215 -1.215,2.566 -1.746,4.035 -0.016,0.078 -0.047,0.144 -0.078,0.203 -0.028,0.07 -0.051,0.129 -0.075,0.203 -0.015,0.008 -0.027,0.024 -0.035,0.024 h -0.07 l -2.375,-0.618 -0.039,-0.007 c -0.016,0 -0.059,0 -0.059,0 l -0.031,-0.028 c 0.016,-0.031 0.023,-0.062 0.031,-0.09 0.008,-0.023 0.016,-0.054 0.035,-0.097 0.481,-1.434 1.098,-2.992 1.899,-4.778 0.055,-0.136 0.129,-0.269 0.195,-0.398 0.031,-0.059 0.059,-0.121 0.09,-0.164 0.285,-0.527 0.676,-0.91 1.18,-1.141 0.687,-0.367 1.414,-0.519 2.136,-0.433 l 0.051,0.004 c 0.242,0.039 0.52,0.078 0.758,0.168 0.008,0.007 0.008,0.015 0.016,0.019 -0.016,0.008 -0.032,0.031 -0.039,0.055 z M 105.105,43.859 c 0.016,-0.043 0.024,-0.097 0.024,-0.125 0.035,-0.195 0.082,-0.461 0.082,-0.73 0,-0.074 0.008,-0.164 0.023,-0.254 0.004,-0.098 0.02,-0.195 0.02,-0.285 0.008,-0.008 0.023,-0.016 0.055,-0.016 0.41,0.082 0.863,0.164 1.339,0.242 3.047,0.653 6.071,1.883 8.739,3.571 3.578,2.254 6.586,5.367 8.687,8.953 0.028,0.097 0.098,0.203 0.156,0.293 0.024,0.039 0.043,0.074 0.059,0.097 0.008,0.016 0.016,0.032 0.016,0.036 -0.016,0 -0.016,0 -0.024,0 -0.41,-0.094 -0.847,-0.141 -1.265,-0.141 -0.145,0 -0.278,0.008 -0.414,0.016 h -0.211 c -0.059,0 -0.133,-0.008 -0.149,-0.067 l -0.008,-0.031 -0.043,-0.039 c -3.457,-5.555 -9.082,-9.59 -15.437,-11.078 -0.246,-0.059 -0.508,-0.11 -0.77,-0.164 -0.257,-0.051 -0.511,-0.106 -0.75,-0.157 l -0.152,-0.031 c 0,-0.023 0.008,-0.058 0.023,-0.09 z m -1.449,7.305 c 0.008,-0.074 0.024,-0.156 0.024,-0.23 0.082,-0.7 0.164,-1.36 0.246,-2.02 l 0.25,-1.73 c 0.023,-0.168 0.043,-0.34 0.058,-0.52 0.024,-0.172 0.039,-0.352 0.063,-0.492 0.019,-0.094 0.027,-0.188 0.043,-0.285 0.008,-0.086 0.015,-0.176 0.058,-0.266 0.161,0 0.364,0.024 0.641,0.082 0.762,0.129 1.492,0.293 2.164,0.496 3.445,0.985 6.551,2.692 9.227,5.086 1.418,1.336 2.574,2.649 3.531,4.027 0.121,0.157 0.242,0.325 0.324,0.481 l 0.098,0.156 c 0.043,0.074 0.097,0.153 0.105,0.153 -0.015,0.019 -0.113,0.074 -0.203,0.125 l -0.113,0.07 c -0.832,0.476 -1.5,1.207 -1.875,2.039 -0.238,0.48 -0.449,0.945 -0.66,1.445 -0.539,1.207 -1.004,2.469 -1.453,3.699 -0.039,0.141 -0.114,0.336 -0.196,0.508 h -0.015 l -1.028,-0.156 c -0.007,-0.008 -0.007,-0.008 -0.007,-0.008 0.015,-0.105 0.046,-0.215 0.066,-0.336 0.039,-0.16 0.074,-0.324 0.098,-0.488 0.324,-1.5 0.66,-3.051 0.953,-4.582 l 0.246,-1.367 c 0.219,-1.258 -0.051,-2.528 -0.762,-3.567 -0.301,-0.453 -0.594,-0.796 -0.887,-1.058 -0.629,-0.586 -1.476,-0.985 -2.39,-1.11 -0.934,-0.128 -1.899,0.067 -2.731,0.555 -1.222,0.652 -2.152,1.828 -2.543,3.223 -0.09,0.316 -0.129,0.578 -0.129,0.855 -0.023,0.375 -0.031,0.742 -0.043,1.117 -0.007,0.368 -0.023,0.743 -0.039,1.11 l -0.129,3.594 c 0,0.179 -0.007,0.351 -0.019,0.527 -0.008,0.18 -0.008,0.289 -0.008,0.476 0,0.024 -0.008,0.243 -0.031,0.293 h -0.121 l -0.953,-0.035 c -0.004,0 -0.02,-0.023 -0.02,-0.062 v -3.922 c 0,-1.102 0,-2.235 -0.129,-3.383 0,-0.586 -0.082,-1.141 -0.254,-1.695 -0.277,-0.922 -0.722,-1.696 -1.312,-2.285 l -0.082,-0.082 c -0.055,-0.055 -0.082,-0.137 -0.082,-0.227 0.004,-0.074 0.011,-0.141 0.019,-0.211 z m -3.051,-11.277 c 0.442,0 0.879,0.082 1.254,0.23 0.028,0.016 0.059,0.031 0.09,0.047 0.067,0.027 0.149,0.059 0.223,0.109 1.359,0.84 1.801,2.606 0.984,3.926 -0.324,0.524 -0.758,0.906 -1.297,1.137 -0.406,0.187 -0.836,0.277 -1.3,0.277 -0.239,0 -0.426,0 -0.661,-0.074 -0.652,-0.195 -1.214,-0.578 -1.648,-1.133 -0.234,-0.367 -0.367,-0.672 -0.434,-0.972 -0.046,-0.25 -0.082,-0.481 -0.082,-0.723 0.004,-1.559 1.297,-2.824 2.871,-2.824 z"
       style="fill:#000000;fill-opacity:1;fill-rule:nonzero;stroke:none"
       transform="scale(1.3333333)" /><path
       id="path8"
       d="m 94.109,155.961 c -0.082,-0.02 -0.179,-0.043 -0.269,-0.059 -0.09,-0.023 -0.18,-0.039 -0.262,-0.058 l -0.902,-0.211 h -0.164 c -0.121,0 -0.223,0.105 -0.223,0.226 v 0.036 l 0.02,0.039 c 0.136,0.222 0.277,0.402 0.496,0.539 0.324,0.23 0.621,0.39 0.937,0.511 0.66,0.282 1.371,0.426 2.094,0.426 0.238,0 0.48,-0.015 0.719,-0.047 0.66,-0.125 1.281,-0.246 1.898,-0.367 0.141,-0.019 0.285,-0.051 0.426,-0.082 0.309,-0.066 0.633,-0.133 0.969,-0.156 0.871,-0.09 1.613,-0.067 2.265,0.082 0.375,0.082 0.735,0.156 1.094,0.226 0.359,0.075 0.719,0.141 1.094,0.223 0.437,0.09 0.82,0.129 1.222,0.129 0.512,0 0.977,-0.082 1.434,-0.164 0.527,-0.121 0.996,-0.324 1.484,-0.641 0.258,-0.148 0.414,-0.285 0.528,-0.433 0.043,-0.043 0.058,-0.098 0.082,-0.164 l 0.043,-0.047 v -0.328 h -0.246 c -0.254,0.035 -0.563,0.105 -0.914,0.211 -0.407,0.082 -0.821,0.164 -1.231,0.199 -0.637,0.086 -1.289,0.039 -1.93,-0.117 l -3.304,-0.825 c -0.43,-0.086 -0.91,-0.086 -1.367,0 -0.336,0.043 -0.676,0.125 -1.004,0.207 -0.414,0.106 -0.809,0.204 -1.207,0.309 -0.407,0.105 -0.813,0.211 -1.223,0.316 -0.84,0.172 -1.688,0.188 -2.559,0.02 z"
       style="fill:#000000;fill-opacity:1;fill-rule:nonzero;stroke:none"
       transform="scale(1.3333333)" /><path
       id="path9"
       d="m 78.422,150.562 c 0.207,0.211 0.426,0.426 0.687,0.555 0.563,0.344 1.192,0.594 1.825,0.719 0.578,0.098 1.027,0.121 1.476,0.086 0.367,-0.031 0.735,-0.098 1.086,-0.16 0.18,-0.028 0.356,-0.059 0.543,-0.09 0.762,-0.164 1.559,-0.328 2.34,-0.449 0.539,-0.09 1.019,-0.121 1.445,-0.082 0.449,0.035 0.91,0.125 1.344,0.203 0.41,0.09 0.824,0.172 1.246,0.254 0.336,0.066 0.672,0.129 1.012,0.203 0.383,0.113 0.801,0.172 1.281,0.172 0.383,0 0.773,-0.039 1.18,-0.075 l 0.117,-0.015 c 0.723,-0.121 1.402,-0.399 2.086,-0.856 0.172,-0.129 0.344,-0.261 0.472,-0.425 0.047,-0.047 0.059,-0.098 0.083,-0.168 l 0.046,-0.043 v -0.203 l -0.046,-0.047 c -0.059,-0.059 -0.09,-0.082 -0.188,-0.082 -0.133,0 -0.269,0 -0.41,0.046 -0.551,0.165 -1.082,0.286 -1.637,0.368 -0.637,0.121 -1.289,0.121 -1.922,0 l -0.351,-0.075 c -0.676,-0.144 -1.371,-0.285 -2.032,-0.457 -0.496,-0.144 -1.156,-0.324 -1.816,-0.457 -0.449,-0.121 -0.953,-0.136 -1.469,-0.046 -0.449,0.082 -0.914,0.164 -1.367,0.292 -0.816,0.204 -1.672,0.407 -2.555,0.622 -0.921,0.242 -1.937,0.242 -2.851,0 -0.442,-0.133 -0.84,-0.215 -1.192,-0.286 -0.144,-0.043 -0.285,-0.043 -0.421,-0.043 -0.043,0 -0.188,0.016 -0.188,0.223 l 0.016,0.07 c 0.054,0.106 0.097,0.196 0.16,0.246 z"
       style="fill:#000000;fill-opacity:1;fill-rule:nonzero;stroke:none"
       transform="scale(1.3333333)" /><path
       id="path10"
       d="m 105.465,150.797 c 0.015,0.019 0.031,0.058 0.058,0.09 0.161,0.199 0.375,0.379 0.618,0.531 0.293,0.164 0.586,0.336 0.921,0.465 0.586,0.246 1.223,0.367 1.915,0.367 0.195,0 0.394,-0.008 0.605,-0.031 0.121,-0.02 0.254,-0.035 0.391,-0.059 0.136,-0.023 0.269,-0.047 0.398,-0.058 0.391,-0.086 0.793,-0.176 1.199,-0.274 0.407,-0.09 0.801,-0.187 1.2,-0.269 0.906,-0.223 1.906,-0.254 2.941,-0.082 0.449,0.113 0.898,0.187 1.336,0.261 0.215,0.039 0.433,0.078 0.656,0.114 l 0.106,0.015 c 0.457,0.074 0.894,0.149 1.359,0.149 0.465,0 0.883,-0.051 1.348,-0.164 0.562,-0.114 1.195,-0.375 1.824,-0.766 0.238,-0.156 0.449,-0.359 0.691,-0.645 l 0.028,-0.035 v -0.015 c 0.023,-0.024 0.039,-0.067 0.039,-0.121 l -0.016,-0.067 c -0.023,-0.055 -0.098,-0.164 -0.211,-0.164 -0.133,0 -0.269,0 -0.41,0.043 -0.66,0.211 -1.285,0.332 -1.914,0.449 -0.359,0.039 -0.766,0.039 -1.16,0 -0.563,-0.082 -1.149,-0.164 -1.684,-0.285 l -2.308,-0.492 c -0.872,-0.18 -1.704,-0.16 -2.461,0.082 -0.387,0.105 -0.77,0.211 -1.153,0.305 -0.383,0.105 -0.765,0.211 -1.164,0.316 -0.449,0.152 -0.976,0.277 -1.5,0.367 -0.515,0.082 -1.043,0.082 -1.558,0 l -1.395,-0.285 c -0.176,-0.043 -0.348,-0.09 -0.535,-0.09 -0.117,0 -0.223,0.106 -0.223,0.227 l 0.016,0.082 z"
       style="fill:#000000;fill-opacity:1;fill-rule:nonzero;stroke:none"
       transform="scale(1.3333333)" /><path
       id="path11-6"
       d="m 81.711,111.66 c 0.707,0.988 1.777,1.567 2.973,1.531 0.824,0 1.648,-0.285 2.308,-0.789 0.871,-0.621 1.367,-1.613 1.403,-2.683 0,-0.535 -0.083,-1.074 -0.329,-1.531 -0.25,-0.579 -0.699,-1.075 -1.285,-1.364 -0.578,-0.293 -1.234,-0.375 -1.894,-0.293 -0.746,0.082 -1.449,0.531 -1.864,1.199 -0.058,0.098 -0.156,0.165 -0.214,0.231 -0.032,0.031 -0.082,0.055 -0.121,0.055 0,-0.098 0.015,-0.164 0.015,-0.25 0.035,-0.539 0.121,-1.118 0.246,-1.649 0.293,-1.117 0.824,-2.191 1.567,-3.051 0.332,-0.414 0.789,-0.789 1.238,-1.074 l 0.203,-0.164 0.047,-0.039 c 0.082,-0.082 0.082,-0.211 0,-0.293 -0.047,-0.035 -0.082,-0.035 -0.129,-0.035 -0.047,0 -0.129,0 -0.164,0.035 -1.199,0.543 -2.227,1.285 -3.098,2.274 -1.402,1.652 -2.027,3.796 -1.687,5.941 0.125,0.711 0.375,1.371 0.785,1.949 z m 1.238,-2.226 c 0.082,-0.457 0.25,-0.911 0.539,-1.286 0.121,-0.199 0.285,-0.367 0.453,-0.492 0.575,-0.414 1.364,-0.375 1.895,0.082 0.25,0.211 0.461,0.496 0.578,0.824 0.164,0.415 0.25,0.782 0.25,1.192 v 0.211 c 0.043,0.457 -0.086,0.953 -0.203,1.281 -0.129,0.293 -0.293,0.543 -0.539,0.742 -0.293,0.25 -0.625,0.371 -0.992,0.414 -0.414,0.047 -0.782,-0.129 -1.071,-0.375 -0.168,-0.121 -0.293,-0.285 -0.414,-0.449 -0.293,-0.414 -0.496,-0.906 -0.539,-1.449 0.008,-0.203 0.008,-0.449 0.043,-0.695 z"
       style="fill:#000000;fill-opacity:1;fill-rule:nonzero;stroke:none"
       transform="scale(1.3333333)" /><path
       id="path12"
       d="m 74.699,104.281 c 0.039,0 0.129,-0.047 0.164,-0.047 l 1.035,-0.328 0.25,-0.082 c 0.036,-0.039 0.118,0.043 0.118,0.082 0.039,0.164 0.039,0.293 0.039,0.457 0,1.282 0,2.559 0,3.84 0,1.192 0,2.391 0,3.594 0,0.035 0,0.125 0,0.207 0,0.25 -0.121,0.496 -0.285,0.699 -0.024,0.031 -0.036,0.043 -0.043,0.082 -0.008,0.082 0.082,0.121 0.125,0.121 h 2.226 c 0.086,0 0.106,-0.07 0.086,-0.121 -0.023,-0.051 -0.047,-0.082 -0.086,-0.129 -0.164,-0.164 -0.199,-0.375 -0.199,-0.578 0,-0.043 0,-0.082 0,-0.125 0,-1.191 -0.047,-2.355 -0.047,-3.547 0,-0.496 0,-0.992 0,-1.484 0.047,-1.074 0.047,-2.11 0.047,-3.184 0,-0.66 0,-1.363 0,-2.023 0,-0.039 -0.047,-0.121 -0.047,-0.203 0,-0.035 -0.082,-0.082 -0.129,-0.035 -0.125,0.082 -0.207,0.199 -0.328,0.285 -0.328,0.246 -0.613,0.574 -0.945,0.824 -0.414,0.285 -0.825,0.613 -1.239,0.906 -0.246,0.164 -0.449,0.332 -0.703,0.496 -0.039,0.035 -0.082,0.082 -0.121,0.125 0,0.039 0.047,0.168 0.082,0.168 z"
       style="fill:#000000;fill-opacity:1;fill-rule:nonzero;stroke:none"
       transform="scale(1.3333333)" /><path
       id="path13"
       d="m 120.766,107.535 c 0,0 0.148,0.051 0.246,-0.039 l 0.211,-0.199 c 0.367,-0.375 0.824,-0.625 1.363,-0.746 0.367,-0.082 0.781,-0.082 1.195,0 0.785,0.129 1.403,0.707 1.649,1.449 0.082,0.203 0.121,0.457 0.121,0.703 0.035,0.414 0,0.828 -0.082,1.238 -0.25,1.278 -1.203,2.313 -2.438,2.688 -0.543,0.164 -1.117,0.207 -1.652,0.117 l -0.246,-0.035 c -0.039,0.035 -0.082,0.082 -0.082,0.125 0.035,0.086 0.035,0.168 0.082,0.285 l 0.129,0.129 c 0.035,0 0.117,0.039 0.164,0.039 0.703,0.082 1.363,0.082 2.023,-0.086 1.449,-0.289 2.688,-1.234 3.383,-2.555 0.539,-0.992 0.66,-2.144 0.293,-3.218 -0.211,-0.66 -0.66,-1.239 -1.281,-1.567 -0.828,-0.496 -1.86,-0.625 -2.805,-0.332 -0.496,0.121 -0.953,0.367 -1.367,0.707 -0.125,0.082 -0.211,0.164 -0.293,0.246 l -0.082,0.082 c -0.035,0.047 -0.172,0.098 -0.164,-0.082 0.039,-0.629 0.129,-1.859 0.164,-2.558 0,-0.082 0.015,-0.172 0.039,-0.246 0.035,-0.082 0.117,-0.164 0.203,-0.164 0,0 4.25,0 4.371,0 0.067,0 0.156,-0.024 0.164,-0.25 0.082,-0.457 0.164,-0.868 0.293,-1.282 v -0.043 c 0.039,-0.168 -0.039,-0.203 -0.164,-0.203 -0.332,0.082 -0.66,0.082 -0.992,0.082 -1.199,0 -2.438,0 -3.629,0 -0.66,0 -0.621,0 -0.66,0.614 -0.082,0.543 -0.082,1.027 -0.121,1.57 l -0.164,2.684 c -0.008,0.269 -0.035,0.414 -0.035,0.621 0,0.105 0.043,0.187 0.164,0.226 z"
       style="fill:#000000;fill-opacity:1;fill-rule:nonzero;stroke:none"
       transform="scale(1.3333333)" /><path
       id="path14"
       d="m 112.395,103.574 c 0.039,0.082 0.128,0.082 0.164,0.047 l 0.457,-0.375 c 0.285,-0.211 0.578,-0.375 0.91,-0.496 0.578,-0.203 1.152,-0.246 1.73,-0.082 0.535,0.129 0.946,0.621 0.992,1.156 0.118,0.621 -0.039,1.235 -0.457,1.692 -0.168,0.203 -0.332,0.371 -0.535,0.496 -0.328,0.25 -0.66,0.414 -1.035,0.578 l -0.492,0.203 c -0.082,0.043 -0.129,0.129 -0.082,0.211 0.035,0.035 0.035,0.125 0.082,0.164 0.043,0.082 0.164,0.121 0.246,0.082 0.164,-0.082 0.328,-0.121 0.496,-0.164 0.375,-0.082 0.703,-0.082 1.07,0 0.661,0.082 1.239,0.539 1.485,1.152 0.086,0.203 0.129,0.453 0.168,0.66 0.035,0.332 0.035,0.7 0,1.036 -0.082,0.871 -0.578,1.652 -1.321,2.109 -0.25,0.164 -0.539,0.293 -0.824,0.375 -0.746,0.211 -1.57,0.246 -2.355,0.121 l -0.496,-0.086 c -0.039,0 -0.039,0.039 -0.039,0.086 0,0.082 0,0.164 0,0.246 0,0.082 0.039,0.203 0.168,0.203 0.207,0.035 0.41,0.082 0.621,0.121 0.781,0.082 1.613,0 2.39,-0.203 0.66,-0.211 1.321,-0.496 1.899,-0.871 0.496,-0.375 0.953,-0.781 1.285,-1.32 0.574,-0.871 0.703,-1.981 0.328,-2.969 -0.164,-0.578 -0.578,-1.074 -1.117,-1.367 -0.246,-0.164 -0.578,-0.246 -0.871,-0.328 -0.211,-0.047 -0.45,-0.129 -0.66,-0.164 l -0.036,-0.039 v -0.039 l 0.368,-0.247 c 0.328,-0.203 0.578,-0.496 0.824,-0.781 0.367,-0.492 0.539,-1.117 0.449,-1.73 -0.035,-0.449 -0.293,-0.863 -0.66,-1.117 -0.211,-0.122 -0.41,-0.25 -0.66,-0.332 -0.66,-0.204 -1.403,-0.247 -2.063,-0.036 -0.988,0.246 -1.859,0.86 -2.472,1.688 -0.086,0.117 -0.086,0.199 0.043,0.32 z"
       style="fill:#000000;fill-opacity:1;fill-rule:nonzero;stroke:none"
       transform="scale(1.3333333)" /><path
       id="path15"
       d="m 70.312,76.648 v 64.27 c 0,9.523 7.77,16.719 12.997,19.184 7.015,3.316 9.91,4.582 14.707,6.691 l 2.207,0.961 c 0.211,0.098 0.457,0.098 0.668,0 l 1.656,-0.723 c 5.769,-2.535 7.531,-3.304 15.195,-6.929 3.789,-1.786 8.91,-6.059 11.446,-11.969 0.96,-2.242 1.55,-4.719 1.55,-7.387 V 76.484 c 0,-0.23 -0.187,-0.41 -0.41,-0.41 H 70.734 c -0.234,0 -0.422,0.18 -0.422,0.574 z m 58.876,43.321 v 5.867 c -0.059,0.051 -0.106,0.105 -0.114,0.148 -0.328,0.211 -1.281,0.907 -1.621,1.11 l -5.594,3.765 -0.246,0.153 c -0.082,0.05 -0.082,0.05 -0.179,-0.071 -0.098,-0.117 -0.161,-0.293 -0.219,-0.464 -0.172,-0.465 -0.238,-0.668 -0.504,-1.086 -0.742,-1.336 -1.633,-2.407 -2.969,-3.18 -0.262,-0.152 -0.39,-0.152 0.09,-0.676 l 6.113,-5.918 h 4.957 c 0.157,0 0.293,0.129 0.293,0.293 v 0.059 z m -18.735,22.914 c -0.144,-0.121 -0.285,-0.137 -0.465,-0.113 -0.172,0.015 -0.347,0.074 -0.519,0.136 l -1.266,0.696 -2.258,1.132 c -0.547,0.27 -1.093,0.36 -1.703,0.414 l -0.586,-0.039 c -0.043,0.008 -0.09,-0.035 -0.09,-0.035 -0.027,-0.144 0.114,-0.187 0.114,-0.187 0.832,-0.473 1.621,-0.985 2.461,-1.457 0.41,-0.254 0.832,-0.516 1.246,-0.817 0.375,-0.254 0.695,-0.547 1.027,-0.797 0.199,-0.195 0.402,-0.39 0.516,-0.613 0.039,-0.09 0.031,-0.18 -0.067,-0.254 -0.152,-0.168 -0.367,-0.187 -0.539,-0.086 -0.203,0.153 -0.414,0.258 -0.625,0.371 l -4.222,2.719 c -0.247,0.16 -0.539,0.317 -0.786,0.473 -0.55,0.273 -1.636,0.48 -1.964,0.265 -0.122,-0.078 0.066,-0.179 0.148,-0.234 0.422,-0.219 0.84,-0.426 1.262,-0.645 0.574,-0.367 0.906,-0.652 1.222,-0.871 0.45,-0.293 0.832,-0.636 1.235,-0.988 0.734,-0.637 1.375,-1.359 1.914,-2.109 0.156,-0.188 0.219,-0.328 0.328,-0.516 0.039,-0.09 0.086,-0.262 -0.012,-0.301 -0.144,-0.121 -0.316,-0.105 -0.48,0 -0.203,0.149 -0.414,0.301 -0.617,0.45 l -2.731,2.386 c -0.164,0.149 -0.328,0.246 -0.484,0.399 -0.407,0.343 -0.992,0.672 -1.45,0.89 l -1.824,0.907 c -0.785,0.355 -1.136,0.48 -1.355,0.55 -0.211,0.067 -0.594,0.075 -0.856,0.059 -0.089,0.008 -0.179,-0.031 -0.269,-0.059 0,0 -0.055,-0.086 -0.016,-0.129 0.039,-0.089 0.121,-0.144 0.156,-0.187 0.332,-0.246 0.661,-0.504 0.993,-0.75 0.906,-0.617 1.769,-1.262 2.632,-1.957 1.715,-1.387 3.293,-2.895 4.723,-4.524 0.316,-0.382 0.309,-0.39 0.625,-0.765 0.352,-0.426 0.883,-1.125 0.883,-1.125 0.348,-0.434 -0.066,-0.781 -0.434,-0.75 -0.09,0.008 -1.597,0.465 -2.363,0.758 -0.93,0.39 -1.629,1.082 -2.715,1.777 -0.308,0.195 -1.094,0.691 -1.433,0.816 -1.125,0.461 -1.942,-0.125 -1.395,-0.589 0,0 1.359,-1.207 1.891,-1.653 0.781,-0.597 2.812,-2.75 4.836,-4.183 0.64,-0.45 0.894,-0.539 1.593,-0.629 3.426,-0.446 6.246,-1.391 7.739,-2.403 0.367,-0.254 0.734,-0.488 1.058,-0.777 0.164,-0.144 0.321,-0.293 0.485,-0.445 0.078,-0.098 0.257,-0.11 0.39,-0.035 0.137,0.027 0.278,0.105 0.367,0.14 0.969,0.481 1.774,1.125 2.426,2.035 0.449,0.614 0.824,1.325 1.063,2.055 0.054,0.082 0.113,0.207 0.121,0.297 0.129,0.473 0.129,0.473 -0.242,0.73 -1.477,1.102 -2.75,2.496 -3.75,4.079 -0.457,0.742 -0.914,1.539 -1.371,2.281 l -1.911,3.121 -0.496,0.793 c -0.457,0.742 -1.027,1.387 -1.832,1.726 -0.547,0.223 -0.859,0.473 -1.418,0.661 -0.336,0.117 -0.726,0.238 -1.109,0.367 -0.172,0.058 -0.945,0.215 -1.055,0.015 -0.07,-0.113 0.149,-0.187 0.231,-0.234 0.629,-0.324 1.328,-0.809 1.965,-1.086 0.503,-0.242 0.667,-0.383 0.992,-0.633 0.109,-0.195 0.207,-0.402 0.066,-0.523 z m -17.582,-0.082 -2.496,-14.453 19.23,-3.368 c 0.083,-0.015 0.165,0.043 0.18,0.149 l 0.758,3.504 c -0.277,0.074 -0.539,0.129 -0.75,0.172 -0.781,0.144 -3.316,0.531 -3.707,0.617 -0.77,0.18 -1.086,0.433 -1.363,0.598 -0.969,0.593 -2.813,2.324 -3.735,3.031 -0.285,0.246 -0.863,0.875 -1.148,1.125 -0.922,0.847 -2.379,2.176 -2.574,2.406 -0.485,0.676 -0.164,1.344 0.375,1.898 0.543,0.555 1.539,0.465 1.668,0.45 0.39,-0.039 0.734,-0.114 1.117,-0.278 0.547,-0.226 2.894,-1.828 3.531,-2.226 l 0.34,-0.211 c 0.133,-0.098 0.215,-0.008 0.09,0.105 -0.114,0.106 -0.219,0.227 -0.219,0.227 l -0.219,0.223 c -0.719,0.773 -1.484,1.5 -2.258,2.183 -1.214,1.125 -2.527,2.168 -3.882,3.125 -0.43,0.348 -0.895,0.66 -1.329,1.008 l -3.714,0.68 c 0.097,-0.239 0.168,-0.637 0.105,-0.965 z m -1.566,0.929 c -0.149,0.211 -0.375,0.352 -0.629,0.399 l -0.145,0.019 c -0.523,0.09 -1.035,-0.261 -1.125,-0.793 l -2.301,-13.312 c 0.172,0.098 0.352,0.148 0.524,0.148 0.129,0 0.262,-0.007 0.398,-0.027 0.426,-0.055 0.856,-0.211 1.133,-0.551 l 2.301,13.383 c 0.047,0.262 -0.008,0.516 -0.156,0.734 z m 5.492,-35.468 c 0.637,0.3 1.59,0.441 2.391,0.023 0.425,-0.187 0.71,-0.523 0.71,-0.988 0,-0.203 -0.097,-0.375 -0.285,-0.504 l -0.418,-0.188 c -0.144,-0.058 -0.254,-0.269 -0.211,-0.496 0.024,-0.113 0.082,-0.336 0.137,-0.441 0.285,-0.727 0.766,-1.367 1.41,-1.844 l 0.02,-0.023 1.39,1.672 c 0.082,0.195 0.118,0.382 0.157,0.601 0.066,0.278 -0.032,0.473 -0.211,0.563 -0.028,0.019 -0.059,0.019 -0.082,0.035 -0.039,0.016 -0.278,0.113 -0.301,0.137 -0.285,0.164 -0.344,0.402 -0.254,0.695 0.09,0.308 0.27,0.547 0.562,0.742 0.833,0.481 1.77,0.367 2.504,-0.008 0.09,-0.05 0.235,-0.133 0.332,-0.238 0.196,-0.195 0.301,-0.375 0.301,-0.66 0,-0.098 -0.008,-0.18 -0.023,-0.262 -0.008,-0.055 -0.016,-0.105 -0.016,-0.152 0,-0.192 0.074,-0.367 0.149,-0.555 0.105,-0.305 0.308,-0.539 0.632,-0.703 0.368,-0.18 0.778,-0.234 1.25,-0.152 0.039,0 0.071,0.007 0.098,0.007 l -0.035,0.079 c -0.285,0.117 -0.504,0.351 -0.707,0.664 -0.043,0.086 -0.106,0.136 -0.133,0.211 -0.031,0.07 -0.062,0.136 -0.105,0.226 -0.211,0.457 -0.34,0.973 -0.383,1.508 -0.024,0.293 -0.067,0.703 -0.067,1.019 l -0.257,-0.023 c -1.168,-0.051 -2.129,-0.105 -3.18,-0.121 -0.629,-0.008 -1.266,-0.035 -1.891,-0.035 h -0.105 l -2.961,0.121 c 0,0 -1.356,0.027 -1.524,0.035 -0.164,0.008 -0.187,-0.082 -0.195,-0.133 -0.019,-0.195 -0.027,-0.39 -0.043,-0.578 -0.047,-0.375 -0.129,-0.758 -0.211,-1.148 l -0.051,-0.149 c -0.07,-0.211 -0.144,-0.445 -0.242,-0.64 -0.148,-0.411 -0.457,-0.762 -0.832,-0.965 0.391,-0.071 0.789,-0.024 1.133,0.117 0.457,0.195 0.93,0.625 0.938,1.043 0.015,0.383 -0.067,0.359 -0.067,0.633 0,0.441 0.5,0.793 0.676,0.875 z m 8.765,2.543 c 0,0.308 -0.031,0.336 -0.292,0.332 -0.262,-0.016 -1.168,-0.114 -1.657,-0.145 -2.25,-0.133 -3.359,-0.14 -4.832,-0.09 -1.722,0.059 -2.742,0.203 -2.742,0.203 h -0.332 c -0.105,0 -0.133,-0.203 -0.133,-0.343 0,-0.16 0.004,-0.324 0.004,-0.461 0,-0.067 0.063,-0.102 0.129,-0.102 0.066,0 1.672,-0.086 1.672,-0.086 0.242,-0.011 0.488,-0.027 0.73,-0.051 0.493,-0.039 0.68,-0.066 1.7,-0.082 1.546,-0.023 3.054,0.016 3.832,0.059 0.789,0.055 1.734,0.152 1.734,0.152 0.164,0 0.172,0.067 0.172,0.067 0.015,0.039 0.015,0.465 0.015,0.547 z m -4.98,1.351 c 7.254,0 9.547,1.957 11.414,3.426 0.356,0.277 0.652,0.586 0.992,0.856 0.172,0.164 0.336,0.21 0.645,0.105 3.113,-1.066 6.976,-0.227 8.933,1.559 -8.004,0.007 -35.535,0.007 -43.964,0.007 2.089,-1.808 5.96,-2.632 9.074,-1.566 0.308,0.082 0.465,0.043 0.644,-0.105 0.336,-0.27 0.637,-0.579 0.989,-0.856 1.8,-1.434 4.015,-3.426 11.273,-3.426 z m 3.441,-32.566 c 0,-0.488 0.086,-0.961 0.235,-1.379 0.023,-0.047 0.043,-0.098 0.066,-0.16 0.016,-0.043 0.039,-0.09 0.063,-0.133 l 0.011,-0.039 c 0.055,-0.106 0.122,-0.231 0.129,-0.254 h 24 c 0.36,0 0.653,0.293 0.653,0.652 v 39.524 c 0,0.273 -0.067,0.308 -0.442,0.308 h -3.984 c 0,0 -0.082,0 -0.215,0 -2.437,-2.757 -6.781,-4.168 -10.793,-3.015 -0.121,0.039 -0.258,0.008 -0.355,-0.082 -0.164,-0.133 -0.305,-0.301 -0.493,-0.434 -1.5,-1.164 -3.054,-2.406 -6.171,-3.164 -0.008,-0.113 -0.016,-0.211 -0.016,-0.258 v -2.375 c 0,-0.496 0.082,-1.019 0.246,-1.5 0.039,-0.187 0.113,-0.383 0.211,-0.543 0.023,-0.019 0.051,-0.066 0.082,-0.101 0.016,-0.024 0.031,-0.047 0.047,-0.063 0.035,-0.043 0.148,-0.074 0.199,-0.058 l 0.234,0.121 c 0.122,0.082 0.211,0.117 0.286,0.164 0.082,0.066 0.195,0.066 0.293,0.066 0.32,0 0.554,-0.226 0.554,-0.555 0,-0.253 0,-0.472 -0.09,-0.742 -0.187,-0.609 -0.617,-1.082 -1.156,-1.289 -0.66,-0.285 -1.426,-0.316 -2.203,-0.09 -0.633,0.18 -1.187,0.621 -1.48,1.161 -0.043,0.062 -0.02,0.121 -0.051,0.187 v -5.398 c 0.074,0 5.258,-0.008 5.258,-0.008 0.875,0.008 1.535,0.398 2.121,0.75 0.164,0.129 0.34,0.23 0.511,0.32 0.059,0.039 0.321,0.203 0.411,0.203 0.097,0 0.168,-0.066 0.179,-0.082 0.086,-0.082 0.086,-0.179 0.086,-0.222 v -0.414 c 0.043,-2.317 -0.008,-6.317 -0.008,-7.891 l -0.007,-0.043 c -0.039,-0.121 -0.145,-0.168 -0.196,-0.188 -0.054,-0.023 -0.136,-0.039 -0.269,0.036 0,0 -0.535,0.414 -0.617,0.449 -0.579,0.39 -1.223,0.601 -1.957,0.64 -0.407,0.043 -0.817,0.043 -1.223,0.043 h -3.32 c -0.145,0 -0.641,-0.015 -0.79,-0.023 -0.156,-0.008 -0.164,-0.195 -0.164,-0.352 v -3.148 c 0,-0.172 0.067,-0.211 0.211,-0.211 0.141,0 2.789,0 2.789,0 0.704,0 1.426,0.195 2.032,0.555 0.211,0.129 0.398,0.226 0.644,0.343 l 0.164,0.086 0.098,0.036 c 0.121,0.054 0.277,-0.059 0.316,-0.211 0.039,-0.11 0.032,-0.368 0.032,-0.426 l -0.008,-7.238 v -0.383 c 0,-0.211 -0.164,-0.254 -0.27,-0.239 -0.054,0.008 -0.218,0.067 -0.218,0.067 -0.219,0.082 -0.434,0.211 -0.645,0.336 -0.539,0.355 -1.18,0.472 -1.832,0.512 -0.613,0.039 -1.242,0.039 -1.844,0.039 0,0 -0.953,-0.008 -1.164,-0.008 -0.207,0 -0.187,-0.09 -0.187,-0.258 V 79.59 Z m -5.781,-1.778 c 0,0 -0.039,-0.105 -0.039,-0.195 l 4.695,0.024 c -0.007,0.082 -0.035,0.222 -0.058,0.293 -0.164,0.57 -0.254,1.242 -0.254,2.242 0,0 0,4.086 0,4.168 0,0.082 0,0.211 0.105,0.308 0.106,0.106 0.254,0.106 0.547,0.106 h 3.321 c 0.382,0.039 0.804,0.008 1.277,-0.082 0.254,-0.039 0.465,-0.082 0.703,-0.164 0.055,-0.008 0.09,-0.016 0.137,-0.024 0.027,-0.008 0.066,-0.015 0.09,-0.015 h 0.023 v 4.476 c -0.039,-0.008 -0.07,-0.015 -0.098,-0.023 -0.039,-0.004 -0.082,-0.012 -0.129,-0.035 -0.554,-0.164 -1.109,-0.254 -1.695,-0.254 h -3.691 l -0.098,0.004 c -0.457,0.039 -0.484,0.121 -0.484,0.632 v 5.438 c 0,0.156 0.14,0.269 0.269,0.269 h 3.426 l 2.844,-0.046 c 0.547,0.039 1.109,-0.028 1.703,-0.207 0.105,-0.032 0.164,-0.055 0.223,-0.079 0.082,-0.027 0.121,-0.007 0.113,0.063 -0.008,0.066 0.008,0.156 0.008,0.246 v 4.156 c -0.008,0.043 -0.039,0.043 -0.059,0.035 -0.031,-0.007 -0.07,-0.019 -0.105,-0.035 l -0.063,-0.023 c -0.547,-0.164 -1.129,-0.254 -1.738,-0.254 h -5.813 c -0.09,0 -0.195,-0.008 -0.324,-0.008 -0.297,0.008 -0.441,0.172 -0.457,0.313 -0.019,0.144 -0.019,0.285 -0.019,0.461 v 4.769 c 0,0 -0.079,-0.316 -0.188,-0.547 -0.137,-0.277 -0.797,-0.918 -1.262,-1.222 -0.293,-0.266 -0.789,-0.25 -1.086,-0.024 -0.457,0.309 -0.796,0.594 -1.23,1.125 -0.07,0.106 -0.285,0.426 -0.277,0.66 v -5.289 c 0,-0.156 -0.18,-0.262 -0.309,-0.262 h -5.902 c -0.383,0 -0.707,0 -1.075,0.047 -0.375,0 -0.75,0.067 -1.175,0.207 -0.051,0.016 -0.121,0.039 -0.121,-0.043 v -4.394 c 0.039,0.008 0.07,0.012 0.097,0.019 0.047,0.008 0.082,0.016 0.129,0.04 0.223,0.074 0.488,0.121 0.711,0.148 l 0.09,0.016 c 0.195,0.039 0.465,0.089 0.73,0.089 h 5.977 c 0.09,0 0.187,-0.007 0.285,-0.019 0.09,-0.008 0.172,-0.024 0.254,-0.024 0.164,0 0.309,-0.152 0.309,-0.308 v -5.649 c 0,-0.097 -0.098,-0.207 -0.196,-0.253 -0.082,-0.059 -0.152,-0.059 -0.195,-0.059 h -3.715 c -0.777,0 -1.512,0.156 -2.047,0.293 l -0.179,0.035 h -0.024 v -4.492 l 0.227,0.039 c 0.539,0.164 1.101,0.254 1.648,0.254 h 3.66 c 0.176,0 0.356,0 0.563,-0.059 0.09,-0.047 0.242,-0.121 0.242,-0.301 v -4.359 c 0.031,-0.676 -0.066,-1.43 -0.301,-2.227 z m -26.379,0.465 c 0,-0.359 0.293,-0.652 0.653,-0.652 H 96.48 c 0.024,0.023 0.098,0.098 0.122,0.148 0.027,0.063 0.058,0.114 0.082,0.18 0.187,0.461 0.285,0.887 0.285,1.285 0.035,0.367 0.035,0.735 0.035,1.102 v 2.902 c 0,0.211 -0.02,0.27 -0.18,0.27 h -2.422 c -0.375,0 -0.691,-0.043 -1.043,-0.121 -0.515,-0.118 -1.004,-0.321 -1.437,-0.598 -0.098,-0.059 -0.195,-0.121 -0.285,-0.18 -0.098,-0.066 -0.188,-0.129 -0.274,-0.164 -0.082,-0.086 -0.179,-0.086 -0.222,-0.086 -0.145,0 -0.196,0.071 -0.219,0.121 -0.051,0.082 -0.051,0.18 -0.051,0.227 0,0 0,7.902 0,7.949 0,0.039 0.008,0.059 0.008,0.067 0.066,0.226 0.297,0.179 0.367,0.144 0,0 0.133,-0.062 0.18,-0.098 l 0.687,-0.367 c 0.594,-0.34 1.239,-0.465 1.871,-0.465 h 2.961 c 0.106,0 0.188,-0.007 0.188,0.09 0.039,0.953 0.031,3.028 0.023,3.524 0,0.074 -0.07,0.136 -0.136,0.136 h -5.301 c -0.633,0 -1.313,-0.203 -1.86,-0.554 0,0 -0.843,-0.481 -0.855,-0.489 -0.047,-0.015 -0.082,-0.023 -0.129,-0.031 -0.195,-0.015 -0.27,0.137 -0.27,0.27 v 7.996 c 0,0.148 0.18,0.226 0.27,0.226 0.051,0 0.164,0 0.238,-0.07 0.242,-0.117 0.496,-0.246 0.731,-0.402 0.66,-0.356 1.281,-0.52 1.91,-0.52 h 4.996 l 0.391,0.024 v 5.66 c -0.008,-0.004 -0.008,-0.02 -0.016,-0.028 -0.023,-0.054 -0.051,-0.105 -0.082,-0.179 -0.34,-0.774 -1.082,-1.313 -1.965,-1.449 -0.555,-0.083 -1.125,-0.036 -1.629,0.128 -0.621,0.18 -1.16,0.711 -1.336,1.329 -0.109,0.328 -0.101,0.671 -0.082,0.824 l 0.055,0.172 c 0.059,0.156 0.148,0.218 0.285,0.285 0.141,0.066 0.301,0.074 0.441,0.015 0.04,-0.023 0.083,-0.039 0.137,-0.062 0.051,-0.02 0.102,-0.043 0.133,-0.059 0.082,-0.023 0.145,-0.066 0.195,-0.089 0.047,-0.032 0.09,-0.051 0.121,-0.067 0.133,-0.031 0.18,0.016 0.231,0.09 0.105,0.105 0.18,0.254 0.262,0.402 0.105,0.258 0.242,0.586 0.281,0.918 0.035,0.239 0.082,0.485 0.082,0.719 0,0 0,2.625 0,2.691 v 0.039 c -3.063,0.782 -4.492,2.024 -5.867,3.106 -0.125,0.105 -0.246,0.223 -0.367,0.32 -0.172,0.153 -0.411,0.203 -0.637,0.145 -3.977,-1.082 -8.379,0.336 -10.778,3.066 H 72.57 c -0.644,0 -0.707,-0.164 -0.707,-0.703 z m 0,41.836 c 0,-0.367 0.063,-0.488 0.399,-0.488 l 47.543,-0.008 h 2.199 c -1.922,1.942 -5.133,5.055 -5.703,5.551 -1.102,0.945 -2.235,1.844 -3.403,2.527 -0.277,0.164 -0.57,0.309 -0.871,0.434 l -0.644,-3.074 c -0.164,-0.938 -1.067,-1.567 -2.004,-1.41 l -19.836,3.429 v 0.004 c -0.367,0.055 -0.66,0.371 -0.676,0.75 -0.023,0.856 -0.562,1.051 -1.012,1.113 -0.144,0.02 -0.781,0.18 -1.066,-0.683 -0.133,-0.414 -0.473,-0.668 -0.891,-0.539 -0.347,0.105 -0.562,0.426 -0.554,0.769 0,0.008 0,0.016 0,0.016 0,0.023 0,0.047 0.008,0.062 0,0.028 0,0.051 0.007,0.082 l 2.547,14.782 c 0.219,1.238 1.203,2.136 2.418,2.136 0.141,0 0.289,-0.015 0.434,-0.035 l 0.14,-0.023 c 0.079,-0.016 0.211,-0.039 0.211,-0.039 l 4.278,-0.77 c 0.027,0.36 0.222,0.59 0.269,0.606 0.383,0.316 0.84,0.496 1.321,0.496 0.351,0.008 0.742,-0.024 1.085,-0.145 l 0.336,-0.117 c 0.219,-0.07 0.438,-0.039 0.661,0.027 l 0.179,0.071 c 0.504,0.172 0.992,0.328 1.473,0.285 l 0.605,-0.055 c 0.219,-0.023 0.446,0.008 0.633,0.121 0.5,0.215 1.039,0.344 1.567,0.336 0.398,0.008 0.832,-0.027 1.222,-0.113 0.391,-0.082 0.824,-0.117 1.223,-0.066 0.93,0.046 1.992,0.203 2.902,0.031 0.434,-0.082 0.864,-0.211 1.289,-0.34 l 1.282,-0.426 c 0.218,-0.066 0.382,-0.164 0.593,-0.277 0.707,-0.422 1.328,-1.184 1.793,-1.891 l 0.227,-0.375 c 1.183,-1.957 2.254,-3.914 3.441,-5.871 0.539,-0.84 1.125,-1.598 1.813,-2.273 0.683,-0.684 1.418,-1.321 2.25,-1.836 l 7.269,-5.16 c 0.106,-0.086 0.239,-0.176 0.352,-0.227 v 13.238 c 0,8.969 -7.238,15.645 -12.106,17.946 -7.648,3.617 -10.273,4.765 -16.035,7.3 l -0.238,0.102 c -0.164,0.07 -0.344,0.07 -0.504,0 l -1.672,-0.727 c -4.785,-2.097 -7.672,-3.359 -14.668,-6.668 -4.871,-2.3 -12.105,-8.976 -12.105,-17.945 v -20.633 z"
       style="fill:#000000;fill-opacity:1;fill-rule:nonzero;stroke:none"
       transform="scale(1.3333333)" /><path
       id="path16-7"
       d="m 602.762,83.746 0.043,0.164 c 0.621,-0.129 2.242,-0.164 2.902,-0.164 h 15.234 c 0,-0.375 1.289,-2.859 1.493,-3.277 l -0.211,-0.211 c -2.618,1.98 -6.895,2.519 -11.453,2.519 -1.118,0 -2.243,0 -3.36,-0.043 -0.121,-2.695 -0.082,-6.183 -0.082,-12.656 v -0.043 c 9.211,0 9.629,0.336 10.207,1.809 l 0.211,-0.129 c -0.168,-0.793 -0.211,-1.305 -0.211,-2.184 0,-0.84 0.039,-1.429 0.211,-2.226 l -0.211,-0.043 c -0.457,1.468 -0.953,1.679 -10.207,1.804 0,-5.886 -0.039,-8.578 0.082,-11.937 1.164,-0.129 2.281,-0.082 3.324,-0.082 4.192,0 7.469,0.629 9.582,2.609 l 0.211,-0.211 c -0.246,-0.586 -0.996,-2.773 -0.996,-3.277 h -13.824 c -0.621,0 -2.324,0 -2.902,-0.211 l -0.043,0.211 c 0.832,0.293 1.242,0.883 1.289,1.762 0.125,2.691 0.082,5.504 0.082,12.023 0,6.598 0.043,9.246 -0.082,11.985 -0.047,0.71 -0.457,1.343 -1.289,1.808 z"
       style="fill:#000000;fill-opacity:1;fill-rule:nonzero;stroke:none"
       transform="scale(1.3333333)" /><path
       id="path17-5"
       d="m 643.641,49.516 c 0,0.968 0.75,1.64 1.621,1.64 0.953,0 1.66,-0.672 1.66,-1.64 0,-0.887 -0.707,-1.645 -1.66,-1.645 -0.871,0 -1.621,0.758 -1.621,1.645 z"
       style="fill:#000000;fill-opacity:1;fill-rule:nonzero;stroke:none"
       transform="scale(1.3333333)" /><path
       id="path18-3"
       d="m 657.219,69.953 c 0,-8.918 -6.895,-14.633 -14.903,-14.633 -8.054,0 -14.941,5.715 -14.941,14.633 0,8.918 6.891,14.633 14.941,14.633 8.008,0 14.903,-5.723 14.903,-14.633 z m -14.903,13.363 c -6.187,0 -11.453,-5.082 -11.453,-13.371 0,-8.281 5.274,-13.371 11.453,-13.371 6.141,0 11.368,5.082 11.368,13.371 0,8.289 -5.227,13.371 -11.368,13.371 z"
       style="fill:#000000;fill-opacity:1;fill-rule:nonzero;stroke:none"
       transform="scale(1.3333333)" /><path
       id="path19-5"
       d="m 637.629,49.516 c 0,0.968 0.668,1.64 1.617,1.64 0.953,0 1.66,-0.672 1.66,-1.64 0,-0.887 -0.707,-1.645 -1.66,-1.645 -0.957,0 -1.617,0.758 -1.617,1.645 z"
       style="fill:#000000;fill-opacity:1;fill-rule:nonzero;stroke:none"
       transform="scale(1.3333333)" /><path
       id="path20-6"
       d="m 659.379,59.484 0.207,0.164 c 2.82,-1.972 6.226,-2.519 10.172,-2.484 v 12.781 c 0,6.602 0.043,9.246 -0.082,11.985 -0.047,0.84 -0.457,1.343 -1.328,1.808 l 0.043,0.164 c 0.578,-0.129 2.281,-0.164 2.949,-0.164 0.668,0 2.324,0.043 2.902,0.164 l 0.082,-0.164 c -0.871,-0.422 -1.289,-1.011 -1.328,-1.808 -0.125,-2.731 -0.082,-5.383 -0.082,-11.985 V 57.164 c 3.984,-0.043 7.305,0.422 10.125,2.484 l 0.211,-0.21 c -0.211,-0.547 -0.996,-2.942 -0.996,-3.278 h -21.879 c 0,0.336 -0.789,2.774 -0.996,3.324 z"
       style="fill:#000000;fill-opacity:1;fill-rule:nonzero;stroke:none"
       transform="scale(1.3333333)" /><path
       id="path21-2"
       d="m 710.176,56.16 c -0.871,0 -1.742,-0.047 -2.41,-0.211 l -0.036,0.211 c 1.079,0.418 1.454,1.012 1.118,1.762 -1.118,2.691 -2.078,5.258 -5.063,11.648 -2.445,5.258 -3.277,7.403 -4.605,10.215 -1.328,-2.773 -1.785,-3.953 -4.649,-10.215 -2.867,-6.39 -4.23,-8.918 -5.355,-11.648 -0.332,-0.711 0.043,-1.305 1.117,-1.762 l -0.047,-0.211 c -0.621,0.211 -2.82,0.211 -3.57,0.211 -0.832,0 -2.449,-0.047 -3.238,-0.211 l -0.083,0.211 c 0.786,0.211 1.868,1.262 2.489,2.481 1.328,2.73 2.242,4.586 5.23,10.937 3.028,6.434 5.481,11.813 6.637,14.504 h 0.578 c 1.117,-2.691 3.57,-8.07 6.598,-14.504 2.984,-6.344 4.148,-8.535 5.476,-11.266 0.621,-1.222 1.371,-1.933 2.242,-2.144 l -0.046,-0.211 c -0.762,0.156 -1.59,0.203 -2.383,0.203 z"
       style="fill:#000000;fill-opacity:1;fill-rule:nonzero;stroke:none"
       transform="scale(1.3333333)" /><path
       id="path22-9"
       d="m 734.168,49.516 c 0,-0.887 -0.707,-1.645 -1.656,-1.645 -0.871,0 -1.621,0.758 -1.621,1.645 0,0.968 0.75,1.64 1.621,1.64 0.949,0 1.656,-0.672 1.656,-1.64 z"
       style="fill:#000000;fill-opacity:1;fill-rule:nonzero;stroke:none"
       transform="scale(1.3333333)" /><path
       id="path23-1"
       d="m 728.152,49.516 c 0,-0.887 -0.703,-1.645 -1.656,-1.645 -0.953,0 -1.621,0.758 -1.621,1.645 0,0.968 0.66,1.64 1.621,1.64 0.953,0 1.656,-0.672 1.656,-1.64 z"
       style="fill:#000000;fill-opacity:1;fill-rule:nonzero;stroke:none"
       transform="scale(1.3333333)" /><path
       id="path24-2"
       d="m 714.621,69.953 c 0,8.918 6.895,14.633 14.941,14.633 8.012,0 14.903,-5.715 14.903,-14.633 0,-8.918 -6.891,-14.633 -14.903,-14.633 -8.054,0 -14.941,5.715 -14.941,14.633 z m 14.941,-13.375 c 6.141,0 11.372,5.086 11.372,13.375 0,8.281 -5.231,13.371 -11.372,13.371 -6.187,0 -11.453,-5.086 -11.453,-13.371 0,-8.289 5.266,-13.375 11.453,-13.375 z"
       style="fill:#000000;fill-opacity:1;fill-rule:nonzero;stroke:none"
       transform="scale(1.3333333)" /><path
       id="path25-7"
       d="m 768.621,76.426 c 0,-5.504 -4.23,-7.403 -8.172,-8.957 -3.363,-1.469 -6.472,-2.645 -6.472,-6.051 0,-3.031 2.359,-4.84 5.519,-4.84 2.945,0 5.555,1.133 7.258,4.629 l 0.168,-0.211 -0.375,-3.484 c -1.496,-1.391 -3.656,-2.184 -6.813,-2.184 -4.648,0 -8.422,2.61 -8.422,7.567 0,4.289 3.782,5.886 7.469,7.484 3.528,1.555 6.93,3.07 6.93,6.984 0,3.532 -2.617,6.016 -6.387,6.016 -3.078,0 -6.355,-1.891 -8.34,-5.805 l -0.332,0.164 0.707,4.078 c 1.657,1.555 4.895,2.778 7.844,2.778 4.973,-0.008 9.418,-3.121 9.418,-8.168 z"
       style="fill:#000000;fill-opacity:1;fill-rule:nonzero;stroke:none"
       transform="scale(1.3333333)" /><path
       id="path26-0"
       d="m 806.512,80.461 -0.211,-0.211 c -2.817,2.145 -6.93,2.566 -11.617,2.52 -0.786,0 -1.618,0 -2.45,-0.043 -0.129,-2.696 -0.086,-6.227 -0.086,-12.782 0,-6.519 -0.035,-9.336 0.086,-12.023 0.043,-0.883 0.457,-1.469 1.289,-1.762 l -0.046,-0.211 c -0.539,0.211 -2.278,0.211 -2.903,0.211 -0.621,0 -2.324,0 -2.945,-0.211 l -0.047,0.211 c 0.832,0.293 1.246,0.887 1.289,1.762 0.129,2.691 0.082,5.504 0.082,12.023 0,6.602 0.047,9.246 -0.082,11.985 -0.035,0.711 -0.457,1.343 -1.289,1.808 l 0.047,0.164 c 0.621,-0.129 2.242,-0.164 2.902,-0.164 h 14.528 c 0.007,-0.422 1.25,-2.859 1.453,-3.277 z"
       style="fill:#000000;fill-opacity:1;fill-rule:nonzero;stroke:none"
       transform="scale(1.3333333)" /><path
       id="path27-9"
       d="m 807.426,69.953 c 0,8.918 6.894,14.633 14.941,14.633 8.012,0 14.903,-5.715 14.903,-14.633 0,-8.918 -6.891,-14.633 -14.903,-14.633 -8.047,0 -14.941,5.715 -14.941,14.633 z m 26.32,0 c 0,8.281 -5.23,13.371 -11.371,13.371 -6.187,0 -11.453,-5.086 -11.453,-13.371 0,-8.281 5.273,-13.375 11.453,-13.375 6.137,0 11.371,5.086 11.371,13.375 z"
       style="fill:#000000;fill-opacity:1;fill-rule:nonzero;stroke:none"
       transform="scale(1.3333333)" /><path
       id="path28-3"
       d="m 864.246,83.234 c -0.207,0.047 -0.375,0.082 -0.457,0.082 -1.703,0 -3.277,-2.82 -4.898,-5.804 -1.739,-2.985 -3.606,-6.309 -6.102,-6.981 4.52,-0.676 8.301,-3.031 8.301,-7.57 0,-3.785 -3.278,-6.981 -10.828,-6.981 -0.66,0 -4.442,0.043 -5.813,0.165 v 0.164 c 0.785,0.046 1.199,0.55 1.242,1.597 0.129,2.696 0.082,5.508 0.082,12.024 0,6.601 0.039,9.246 -0.082,11.984 -0.043,0.797 -0.457,1.387 -1.328,1.809 l 0.086,0.164 c 0.621,-0.125 2.324,-0.164 2.946,-0.164 0.66,0 2.324,0.043 2.902,0.164 l 0.047,-0.164 c -0.789,-0.375 -1.207,-1.012 -1.246,-1.809 -0.129,-2.609 -0.129,-5.34 -0.129,-11.098 0.457,-0.046 0.75,-0.046 1.207,-0.046 0.375,0 0.75,0 1.121,0.046 1.992,0.547 2.902,3.149 4.027,5.887 1.324,3.578 2.817,7.402 6.352,7.402 0.953,0 1.867,-0.046 2.652,-0.675 z M 850.262,69.57 c -0.461,0 -0.836,0 -1.293,-0.047 0,-5.546 0,-9.921 0.129,-12.441 5.437,0 8.593,1.387 8.593,5.887 0,4.547 -2.902,6.601 -7.429,6.601 z"
       style="fill:#000000;fill-opacity:1;fill-rule:nonzero;stroke:none"
       transform="scale(1.3333333)" /><path
       id="path29-6"
       d="m 869.109,83.746 c -1.035,-0.465 -1.41,-1.098 -1.121,-1.808 0.789,-1.981 1.539,-3.743 2.989,-6.938 h 13.484 c 1.535,3.195 2.363,5.047 3.156,6.938 0.293,0.71 -0.043,1.343 -1.078,1.808 l 0.035,0.164 c 0.668,-0.129 2.785,-0.164 3.571,-0.164 0.871,0 2.453,0.043 3.277,0.164 l 0.047,-0.164 c -0.832,-0.293 -1.824,-1.262 -2.453,-2.484 -1.457,-2.692 -2.325,-4.535 -5.313,-10.934 -2.984,-6.437 -5.519,-11.859 -6.598,-14.504 h -0.578 c -1.164,2.692 -3.57,8.067 -6.601,14.504 -2.985,6.352 -4.028,8.535 -5.481,11.227 -0.621,1.304 -1.371,1.89 -2.242,2.191 l 0.082,0.164 c 0.789,-0.129 1.621,-0.164 2.406,-0.164 0.832,0 1.704,0.043 2.364,0.164 z m 3.942,-13.418 c 2.453,-5.297 3.277,-7.441 4.605,-10.215 1.328,2.774 1.785,3.953 4.653,10.215 0.621,1.305 1.16,2.481 1.617,3.531 h -12.492 c 0.457,-1.05 0.996,-2.183 1.617,-3.531 z"
       style="fill:#000000;fill-opacity:1;fill-rule:nonzero;stroke:none"
       transform="scale(1.3333333)" /><path
       id="path30-0"
       d="m 884.086,49.77 -0.871,-2.227 c -1.867,1.469 -4.567,2.984 -6.766,3.871 l 0.121,0.289 c 1.875,-0.336 5.61,-1.137 7.516,-1.933 z"
       style="fill:#000000;fill-opacity:1;fill-rule:nonzero;stroke:none"
       transform="scale(1.3333333)" /><path
       id="path31-6"
       d="m 921.773,57.922 c 0.125,-0.969 0.411,-1.434 1.243,-1.762 l -0.036,-0.211 c -0.621,0.164 -1.457,0.211 -2.078,0.211 -0.66,0 -1.492,-0.047 -2.113,-0.211 l -0.039,0.211 c 0.871,0.336 1.164,0.793 1.289,1.762 0.211,2.691 0.332,5.504 0.332,12.023 0,5.129 0.043,6.891 0.164,9.246 -3.863,-4.328 -7.637,-8.578 -9.422,-10.632 -1.785,-2.02 -5.894,-6.774 -10.707,-12.407 h -0.668 c -1.289,0 -2.738,-0.043 -3.734,-0.211 l -0.047,0.211 c 0.953,0.375 1.457,1.051 1.492,2.02 0.129,2.691 0.082,5.254 0.082,11.773 0,6.602 -0.043,9.246 -0.246,11.985 -0.047,0.797 -0.457,1.433 -1.289,1.808 l 0.043,0.164 c 0.625,-0.129 1.41,-0.164 2.078,-0.164 0.621,0 1.539,0.043 2.078,0.164 l 0.043,-0.164 c -0.867,-0.465 -1.242,-0.968 -1.289,-1.808 -0.211,-2.731 -0.328,-5.422 -0.328,-11.985 0,-6.343 -0.082,-8.242 -0.082,-11.019 5.473,6.347 9.172,10.515 10.461,11.988 l 11.828,13.664 h 0.75 c -0.129,-2.73 -0.082,-8.031 -0.082,-14.633 -0.008,-6.511 0.074,-9.332 0.277,-12.023 z"
       style="fill:#000000;fill-opacity:1;fill-rule:nonzero;stroke:none"
       transform="scale(1.3333333)" /><path
       id="path32-2"
       d="m 931.199,83.574 v 0.164 c 1.289,0.125 4.653,0.164 6.766,0.164 11.746,0 16.644,-6.683 16.644,-14.34 0,-9.585 -6.683,-13.582 -16.773,-13.582 -0.664,0 -5.352,0.043 -6.637,0.165 v 0.164 c 0.668,0.046 1.199,0.421 1.246,1.597 0.129,2.696 0.082,5.508 0.082,12.024 0,6.601 0.047,9.246 -0.082,11.984 -0.047,1.195 -0.586,1.531 -1.246,1.66 z M 935.852,57 c 0.539,-0.047 1.117,-0.047 1.617,-0.047 10.125,0 13.613,5.719 13.613,12.617 0,8.535 -4.191,13.289 -13.32,13.328 -0.621,0 -1.246,0 -1.91,-0.046 -0.122,-2.692 -0.086,-6.051 -0.086,-12.571 v -1.133 c 0,-5.546 -0.043,-9.628 0.086,-12.148 z"
       style="fill:#000000;fill-opacity:1;fill-rule:nonzero;stroke:none"
       transform="scale(1.3333333)" /><path
       id="path33-6"
       d="m 635.969,112.68 c -0.922,0 -1.895,-0.059 -2.821,-0.309 l -0.058,0.309 c 1.289,0.433 1.898,1.304 1.957,2.609 0.062,4.035 0.187,10.742 0.187,22.102 0,9.504 -5.211,14.718 -13.117,14.718 -8.519,0 -13.363,-4.597 -13.363,-14.093 0,-9.625 -0.063,-18.75 0.117,-22.727 0.063,-1.305 0.676,-2.176 1.899,-2.609 l -0.059,-0.309 c -0.797,0.309 -3.375,0.309 -4.289,0.309 -0.926,0 -3.438,0 -4.352,-0.309 l -0.058,0.309 c 1.226,0.433 1.836,1.304 1.894,2.609 0.18,3.977 0.121,13.102 0.121,22.727 0,12.113 7.785,16.64 17.289,16.64 8.579,0 15.508,-5.715 15.508,-17.265 0,-9.621 0,-18.133 0.188,-22.102 0.062,-1.305 0.676,-2.176 1.84,-2.609 l -0.063,-0.309 c -0.793,0.242 -1.836,0.309 -2.82,0.309 z"
       style="fill:#000000;fill-opacity:1;fill-rule:nonzero;stroke:none"
       transform="scale(1.3333333)" /><path
       id="path34-1"
       d="m 686.781,112.68 c -0.98,0 -2.203,-0.059 -3.125,-0.309 l -0.062,0.309 c 1.293,0.496 1.718,1.179 1.898,2.609 0.309,3.977 0.488,8.137 0.488,17.762 0,7.574 0.059,10.183 0.247,13.664 -5.7,-6.399 -11.278,-12.668 -13.911,-15.711 -2.632,-2.981 -8.707,-10 -15.82,-18.324 h -0.98 c -1.899,0 -4.043,-0.059 -5.52,-0.309 l -0.062,0.309 c 1.41,0.562 2.144,1.554 2.207,2.976 0.187,3.977 0.121,7.766 0.121,17.387 0,9.75 -0.063,13.664 -0.371,17.699 -0.059,1.18 -0.672,2.11 -1.895,2.672 l 0.059,0.246 c 0.922,-0.187 2.086,-0.246 3.066,-0.246 0.926,0 2.266,0.059 3.07,0.246 l 0.059,-0.246 c -1.289,-0.684 -1.836,-1.426 -1.898,-2.672 -0.305,-4.035 -0.489,-8.008 -0.489,-17.699 0,-9.375 -0.117,-12.172 -0.117,-16.27 8.09,9.375 13.543,15.528 15.449,17.704 l 17.469,20.179 h 1.102 c -0.188,-4.035 -0.121,-11.855 -0.121,-21.605 0,-9.625 0.121,-13.785 0.429,-17.762 0.188,-1.426 0.614,-2.113 1.836,-2.609 l -0.058,-0.309 c -0.918,0.242 -2.149,0.309 -3.071,0.309 z"
       style="fill:#000000;fill-opacity:1;fill-rule:nonzero;stroke:none"
       transform="scale(1.3333333)" /><path
       id="path35-8"
       d="m 709.648,112.68 -0.058,-0.309 c -0.793,0.309 -3.375,0.309 -4.289,0.309 -0.922,0 -3.438,0 -4.352,-0.309 l -0.058,0.309 c 1.23,0.433 1.836,1.304 1.898,2.609 0.188,3.977 0.188,8.137 0.188,17.762 0,9.75 0,13.664 -0.188,17.699 -0.062,1.176 -0.676,2.109 -1.898,2.672 l 0.058,0.246 c 0.985,-0.188 3.375,-0.246 4.352,-0.246 0.98,0 3.433,0.058 4.289,0.246 l 0.058,-0.246 c -0.793,-0.438 -1.836,-0.934 -1.894,-2.672 -0.188,-4.035 -0.121,-7.949 -0.121,-17.699 0,-9.625 -0.059,-13.785 0.121,-17.762 0.058,-1.305 0.672,-2.176 1.894,-2.609 z"
       style="fill:#000000;fill-opacity:1;fill-rule:nonzero;stroke:none"
       transform="scale(1.3333333)" /><path
       id="path36-7"
       d="m 752.926,112.68 c -1.289,0 -2.574,-0.059 -3.555,-0.309 l -0.062,0.309 c 1.597,0.621 2.144,1.492 1.66,2.609 -1.66,3.977 -3.071,7.762 -7.481,17.199 -3.613,7.762 -4.843,10.926 -6.8,15.09 -1.965,-4.094 -2.633,-5.836 -6.864,-15.09 -4.23,-9.437 -6.254,-13.164 -7.902,-17.199 -0.488,-1.055 0.058,-1.926 1.656,-2.609 l -0.062,-0.309 c -0.922,0.309 -4.168,0.309 -5.27,0.309 -1.223,0 -3.617,-0.059 -4.777,-0.309 l -0.121,0.309 c 1.164,0.308 2.761,1.859 3.675,3.66 1.957,4.035 3.305,6.765 7.723,16.148 4.481,9.5 8.094,17.453 9.813,21.426 h 0.855 c 1.656,-3.973 5.27,-11.926 9.742,-21.426 4.41,-9.375 6.125,-12.609 8.09,-16.644 0.926,-1.797 2.027,-2.856 3.309,-3.164 l -0.059,-0.309 c -1.18,0.242 -2.402,0.309 -3.57,0.309 z"
       style="fill:#000000;fill-opacity:1;fill-rule:nonzero;stroke:none"
       transform="scale(1.3333333)" /><path
       id="path37-9"
       d="m 772.059,151.988 c -1.661,0 -3.309,0 -4.965,-0.062 -0.188,-3.973 -0.121,-9.125 -0.121,-18.688 v -0.062 c 13.605,0 14.218,0.496 15.082,2.672 l 0.308,-0.188 c -0.25,-1.176 -0.308,-1.926 -0.308,-3.234 0,-1.242 0.058,-2.106 0.308,-3.289 l -0.308,-0.063 c -0.676,2.176 -1.41,2.485 -15.082,2.672 0,-8.695 -0.059,-12.668 0.121,-17.633 1.715,-0.187 3.367,-0.121 4.902,-0.121 6.188,0 11.035,0.93 14.16,3.848 l 0.309,-0.309 c -0.367,-0.867 -1.469,-4.093 -1.469,-4.843 h -20.418 c -0.922,0 -3.433,0 -4.289,-0.309 l -0.059,0.309 c 1.231,0.433 1.836,1.304 1.899,2.609 0.187,3.976 0.117,8.137 0.117,17.762 0,9.75 0.063,13.664 -0.117,17.699 -0.063,1.058 -0.676,1.988 -1.899,2.668 l 0.059,0.25 c 0.922,-0.188 3.309,-0.25 4.289,-0.25 h 22.496 c 0,-0.563 1.895,-4.223 2.203,-4.844 l -0.308,-0.309 c -3.86,2.903 -10.168,3.715 -16.91,3.715 z"
       style="fill:#000000;fill-opacity:1;fill-rule:nonzero;stroke:none"
       transform="scale(1.3333333)" /><path
       id="path38-2"
       d="m 825.016,152.789 c -2.512,0 -4.844,-4.16 -7.231,-8.57 -2.574,-4.41 -5.332,-9.317 -9.008,-10.305 6.684,-0.992 12.262,-4.473 12.262,-11.176 0,-5.59 -4.844,-10.304 -15.996,-10.304 -0.984,0 -6.555,0.058 -8.582,0.246 v 0.246 c 1.164,0.062 1.777,0.812 1.84,2.363 0.187,3.977 0.121,8.137 0.121,17.762 0,9.75 0.058,13.664 -0.121,17.699 -0.063,1.176 -0.676,2.047 -1.957,2.672 l 0.117,0.246 c 0.926,-0.188 3.437,-0.246 4.351,-0.246 0.985,0 3.434,0.058 4.29,0.246 l 0.062,-0.246 c -1.164,-0.563 -1.777,-1.496 -1.84,-2.672 -0.187,-3.848 -0.187,-7.891 -0.187,-16.395 0.675,-0.058 1.101,-0.058 1.777,-0.058 0.555,0 1.102,0 1.66,0.058 2.938,0.809 4.289,4.657 5.946,8.692 1.964,5.281 4.171,10.93 9.375,10.93 1.41,0 2.761,-0.063 3.921,-0.993 l -0.117,-0.308 c -0.316,0.054 -0.562,0.113 -0.683,0.113 z m -19.981,-20.301 c -0.676,0 -1.223,0 -1.898,-0.062 0,-8.196 0,-14.653 0.187,-18.379 8.035,0 12.692,2.047 12.692,8.691 -0.008,6.703 -4.297,9.75 -10.981,9.75 z"
       style="fill:#000000;fill-opacity:1;fill-rule:nonzero;stroke:none"
       transform="scale(1.3333333)" /><path
       id="path39-0"
       d="m 846.414,129.383 c -4.965,-2.176 -9.562,-3.914 -9.562,-8.942 0,-4.468 3.492,-7.14 8.152,-7.14 4.348,0 8.211,1.683 10.723,6.836 l 0.25,-0.309 -0.555,-5.152 c -2.207,-2.047 -5.395,-3.235 -10.051,-3.235 -6.863,0 -12.445,3.848 -12.445,11.176 0,6.336 5.582,8.692 11.035,11.055 5.211,2.297 10.238,4.531 10.238,10.305 0,5.222 -3.863,8.882 -9.445,8.882 -4.535,0 -9.383,-2.8 -12.32,-8.574 l -0.489,0.246 1.043,6.024 c 2.453,2.297 7.231,4.093 11.586,4.093 7.36,0 13.914,-4.597 13.914,-12.043 0,-8.128 -6.254,-10.929 -12.074,-13.222 z"
       style="fill:#000000;fill-opacity:1;fill-rule:nonzero;stroke:none"
       transform="scale(1.3333333)" /><path
       id="path40-2"
       d="m 877.246,112.68 -0.062,-0.309 c -0.793,0.309 -3.375,0.309 -4.289,0.309 -0.922,0 -3.434,0 -4.348,-0.309 l -0.063,0.309 c 1.231,0.433 1.84,1.304 1.899,2.609 0.179,3.977 0.179,8.137 0.179,17.762 0,9.75 0,13.664 -0.179,17.699 -0.059,1.176 -0.676,2.109 -1.899,2.672 l 0.063,0.246 c 0.98,-0.188 3.367,-0.246 4.348,-0.246 0.984,0 3.433,0.058 4.289,0.246 l 0.062,-0.246 c -0.797,-0.438 -1.84,-0.934 -1.898,-2.672 -0.188,-4.035 -0.121,-7.949 -0.121,-17.699 0,-9.625 -0.059,-13.785 0.121,-17.762 0.05,-1.305 0.668,-2.176 1.898,-2.609 z"
       style="fill:#000000;fill-opacity:1;fill-rule:nonzero;stroke:none"
       transform="scale(1.3333333)" /><path
       id="path41-3"
       d="m 885.09,112.68 c 0,0.496 -1.164,4.093 -1.469,4.906 l 0.305,0.246 c 4.172,-2.918 9.195,-3.727 15.015,-3.66 v 18.879 c 0,9.75 0.063,13.664 -0.117,17.699 -0.062,1.246 -0.676,1.988 -1.965,2.672 l 0.059,0.246 c 0.855,-0.188 3.375,-0.246 4.348,-0.246 0.984,0 3.437,0.058 4.293,0.246 l 0.117,-0.246 c -1.289,-0.625 -1.895,-1.496 -1.957,-2.672 -0.18,-4.035 -0.117,-7.949 -0.117,-17.699 v -18.879 c 5.886,-0.059 10.785,0.625 14.953,3.66 l 0.308,-0.309 c -0.308,-0.808 -1.472,-4.347 -1.472,-4.843 z"
       style="fill:#000000;fill-opacity:1;fill-rule:nonzero;stroke:none"
       transform="scale(1.3333333)" /><path
       id="path42-7"
       d="m 957.668,112.363 c -1.164,0.25 -2.086,0.309 -3.309,0.309 -1.16,0 -2.699,-0.059 -3.742,-0.309 l -0.058,0.309 c 1.656,0.562 2.144,1.426 1.468,2.543 -3.246,4.965 -4.41,6.644 -8.031,11.676 -1.66,2.175 -2.699,3.789 -3.863,5.468 l -3.676,-5.281 c -4.41,-6.148 -5.887,-8.254 -8.152,-12.043 -0.555,-0.988 -0.059,-1.68 1.718,-2.363 l -0.062,-0.309 c -0.852,0.309 -4.715,0.309 -5.887,0.309 -1.101,0 -3.676,0 -4.777,-0.309 l -0.121,0.309 c 1.164,0.308 2.574,1.988 3.746,3.66 1.777,2.297 3.187,4.531 7.664,10.742 l 5.391,7.453 c 0,9.375 0,12.36 -0.18,16.207 0,1.246 -0.555,1.989 -1.836,2.672 l 0.059,0.246 c 0.855,-0.187 3.375,-0.246 4.351,-0.246 0.981,0 3.434,0.059 4.289,0.246 l 0.121,-0.246 c -1.293,-0.625 -1.898,-1.492 -1.957,-2.672 -0.187,-3.972 -0.121,-6.703 -0.121,-16.515 l 5.152,-7.141 c 4.657,-6.207 5.333,-7.512 8.094,-11.172 1.223,-1.554 2.629,-2.918 3.801,-3.234 z"
       style="fill:#000000;fill-opacity:1;fill-rule:nonzero;stroke:none"
       transform="scale(1.3333333)" /></g></svg>
